solid 021.stl
  facet normal -0.998795 -0.0490741 0
    outer loop
      vertex 119.25 100 0.799988
      vertex 119.157 101.887 0
      vertex 119.25 100 0
    endloop
  endfacet
  facet normal -0.998795 -0.0490741 0
    outer loop
      vertex 119.25 100 0.799988
      vertex 119.157 101.887 0.799988
      vertex 119.157 101.887 0
    endloop
  endfacet
  facet normal -0.989175 -0.14674 0
    outer loop
      vertex 119.157 101.887 0.799988
      vertex 118.88 103.755 0
      vertex 119.157 101.887 0
    endloop
  endfacet
  facet normal -0.989175 -0.14674 0
    outer loop
      vertex 119.157 101.887 0.799988
      vertex 118.88 103.755 0.799988
      vertex 118.88 103.755 0
    endloop
  endfacet
  facet normal -0.970033 -0.242971 0
    outer loop
      vertex 118.88 103.755 0.799988
      vertex 118.421 105.588 0
      vertex 118.88 103.755 0
    endloop
  endfacet
  facet normal -0.970033 -0.242971 0
    outer loop
      vertex 118.88 103.755 0.799988
      vertex 118.421 105.588 0.799988
      vertex 118.421 105.588 0
    endloop
  endfacet
  facet normal -0.941549 -0.336875 0
    outer loop
      vertex 118.421 105.588 0.799988
      vertex 117.785 107.367 0
      vertex 118.421 105.588 0
    endloop
  endfacet
  facet normal -0.941549 -0.336875 0
    outer loop
      vertex 118.421 105.588 0.799988
      vertex 117.785 107.367 0.799988
      vertex 117.785 107.367 0
    endloop
  endfacet
  facet normal -0.903985 -0.427563 0
    outer loop
      vertex 117.785 107.367 0.799988
      vertex 116.977 109.074 0
      vertex 117.785 107.367 0
    endloop
  endfacet
  facet normal -0.903985 -0.427563 0
    outer loop
      vertex 117.785 107.367 0.799988
      vertex 116.977 109.074 0.799988
      vertex 116.977 109.074 0
    endloop
  endfacet
  facet normal -0.857736 -0.51409 0
    outer loop
      vertex 116.977 109.074 0.799988
      vertex 116.006 110.695 0
      vertex 116.977 109.074 0
    endloop
  endfacet
  facet normal -0.857736 -0.51409 0
    outer loop
      vertex 116.977 109.074 0.799988
      vertex 116.006 110.695 0.799988
      vertex 116.006 110.695 0
    endloop
  endfacet
  facet normal -0.80321 -0.595696 0
    outer loop
      vertex 116.006 110.695 0.799988
      vertex 114.881 112.212 0
      vertex 116.006 110.695 0
    endloop
  endfacet
  facet normal -0.80321 -0.595696 0
    outer loop
      vertex 116.006 110.695 0.799988
      vertex 114.881 112.212 0.799988
      vertex 114.881 112.212 0
    endloop
  endfacet
  facet normal -0.740953 -0.671557 0
    outer loop
      vertex 114.881 112.212 0.799988
      vertex 113.612 113.612 0
      vertex 114.881 112.212 0
    endloop
  endfacet
  facet normal -0.740953 -0.671557 0
    outer loop
      vertex 114.881 112.212 0.799988
      vertex 113.612 113.612 0.799988
      vertex 113.612 113.612 0
    endloop
  endfacet
  facet normal -0.671554 -0.740956 0
    outer loop
      vertex 113.612 113.612 0.799988
      vertex 112.212 114.88 0
      vertex 113.612 113.612 0
    endloop
  endfacet
  facet normal -0.671554 -0.740956 0
    outer loop
      vertex 113.612 113.612 0.799988
      vertex 112.212 114.88 0.799988
      vertex 112.212 114.88 0
    endloop
  endfacet
  facet normal -0.595671 -0.803229 0
    outer loop
      vertex 112.212 114.88 0.799988
      vertex 110.695 116.006 0
      vertex 112.212 114.88 0
    endloop
  endfacet
  facet normal -0.595671 -0.803229 0
    outer loop
      vertex 112.212 114.88 0.799988
      vertex 110.695 116.006 0.799988
      vertex 110.695 116.006 0
    endloop
  endfacet
  facet normal -0.514116 -0.85772 0
    outer loop
      vertex 110.695 116.006 0.799988
      vertex 109.074 116.977 0
      vertex 110.695 116.006 0
    endloop
  endfacet
  facet normal -0.514116 -0.85772 0
    outer loop
      vertex 110.695 116.006 0.799988
      vertex 109.074 116.977 0.799988
      vertex 109.074 116.977 0
    endloop
  endfacet
  facet normal -0.427562 -0.903986 0
    outer loop
      vertex 109.074 116.977 0.799988
      vertex 107.367 117.785 0
      vertex 109.074 116.977 0
    endloop
  endfacet
  facet normal -0.427562 -0.903986 0
    outer loop
      vertex 109.074 116.977 0.799988
      vertex 107.367 117.785 0.799988
      vertex 107.367 117.785 0
    endloop
  endfacet
  facet normal -0.336923 -0.941532 0
    outer loop
      vertex 107.367 117.785 0.799988
      vertex 105.588 118.421 0
      vertex 107.367 117.785 0
    endloop
  endfacet
  facet normal -0.336923 -0.941532 0
    outer loop
      vertex 107.367 117.785 0.799988
      vertex 105.588 118.421 0.799988
      vertex 105.588 118.421 0
    endloop
  endfacet
  facet normal -0.242972 -0.970033 0
    outer loop
      vertex 105.588 118.421 0.799988
      vertex 103.756 118.88 0
      vertex 105.588 118.421 0
    endloop
  endfacet
  facet normal -0.242972 -0.970033 0
    outer loop
      vertex 105.588 118.421 0.799988
      vertex 103.756 118.88 0.799988
      vertex 103.756 118.88 0
    endloop
  endfacet
  facet normal -0.146733 -0.989176 0
    outer loop
      vertex 103.756 118.88 0.799988
      vertex 101.887 119.157 0
      vertex 103.756 118.88 0
    endloop
  endfacet
  facet normal -0.146733 -0.989176 0
    outer loop
      vertex 103.756 118.88 0.799988
      vertex 101.887 119.157 0.799988
      vertex 101.887 119.157 0
    endloop
  endfacet
  facet normal -0.0490712 -0.998795 0
    outer loop
      vertex 101.887 119.157 0.799988
      vertex 100 119.25 0
      vertex 101.887 119.157 0
    endloop
  endfacet
  facet normal -0.0490712 -0.998795 0
    outer loop
      vertex 101.887 119.157 0.799988
      vertex 100 119.25 0.799988
      vertex 100 119.25 0
    endloop
  endfacet
  facet normal 0.049071 -0.998795 0
    outer loop
      vertex 100 119.25 0.799988
      vertex 98.1132 119.157 0
      vertex 100 119.25 0
    endloop
  endfacet
  facet normal 0.049071 -0.998795 0
    outer loop
      vertex 100 119.25 0.799988
      vertex 98.1132 119.157 0.799988
      vertex 98.1132 119.157 0
    endloop
  endfacet
  facet normal 0.146733 -0.989176 0
    outer loop
      vertex 98.1132 119.157 0.799988
      vertex 96.2445 118.88 0
      vertex 98.1132 119.157 0
    endloop
  endfacet
  facet normal 0.146733 -0.989176 0
    outer loop
      vertex 98.1132 119.157 0.799988
      vertex 96.2445 118.88 0.799988
      vertex 96.2445 118.88 0
    endloop
  endfacet
  facet normal 0.242971 -0.970034 0
    outer loop
      vertex 96.2445 118.88 0.799988
      vertex 94.412 118.421 0
      vertex 96.2445 118.88 0
    endloop
  endfacet
  facet normal 0.242971 -0.970034 0
    outer loop
      vertex 96.2445 118.88 0.799988
      vertex 94.412 118.421 0.799988
      vertex 94.412 118.421 0
    endloop
  endfacet
  facet normal 0.336941 -0.941526 0
    outer loop
      vertex 94.412 118.421 0.799988
      vertex 92.6334 117.785 0
      vertex 94.412 118.421 0
    endloop
  endfacet
  facet normal 0.336941 -0.941526 0
    outer loop
      vertex 94.412 118.421 0.799988
      vertex 92.6334 117.785 0.799988
      vertex 92.6334 117.785 0
    endloop
  endfacet
  facet normal 0.427542 -0.903996 0
    outer loop
      vertex 92.6334 117.785 0.799988
      vertex 90.9256 116.977 0
      vertex 92.6334 117.785 0
    endloop
  endfacet
  facet normal 0.427542 -0.903996 0
    outer loop
      vertex 92.6334 117.785 0.799988
      vertex 90.9256 116.977 0.799988
      vertex 90.9256 116.977 0
    endloop
  endfacet
  facet normal 0.514115 -0.857722 0
    outer loop
      vertex 90.9256 116.977 0.799988
      vertex 89.3053 116.006 0
      vertex 90.9256 116.977 0
    endloop
  endfacet
  facet normal 0.514115 -0.857722 0
    outer loop
      vertex 90.9256 116.977 0.799988
      vertex 89.3053 116.006 0.799988
      vertex 89.3053 116.006 0
    endloop
  endfacet
  facet normal 0.595671 -0.803229 0
    outer loop
      vertex 89.3053 116.006 0.799988
      vertex 87.7879 114.88 0
      vertex 89.3053 116.006 0
    endloop
  endfacet
  facet normal 0.595671 -0.803229 0
    outer loop
      vertex 89.3053 116.006 0.799988
      vertex 87.7879 114.88 0.799988
      vertex 87.7879 114.88 0
    endloop
  endfacet
  facet normal 0.671556 -0.740954 0
    outer loop
      vertex 87.7879 114.88 0.799988
      vertex 86.3882 113.612 0
      vertex 87.7879 114.88 0
    endloop
  endfacet
  facet normal 0.671556 -0.740954 0
    outer loop
      vertex 87.7879 114.88 0.799988
      vertex 86.3882 113.612 0.799988
      vertex 86.3882 113.612 0
    endloop
  endfacet
  facet normal 0.740979 -0.671529 0
    outer loop
      vertex 86.3882 113.612 0.799988
      vertex 85.1196 112.212 0
      vertex 86.3882 113.612 0
    endloop
  endfacet
  facet normal 0.740979 -0.671529 0
    outer loop
      vertex 86.3882 113.612 0.799988
      vertex 85.1196 112.212 0.799988
      vertex 85.1196 112.212 0
    endloop
  endfacet
  facet normal 0.803185 -0.59573 0
    outer loop
      vertex 85.1196 112.212 0.799988
      vertex 83.9942 110.695 0
      vertex 85.1196 112.212 0
    endloop
  endfacet
  facet normal 0.803185 -0.59573 0
    outer loop
      vertex 85.1196 112.212 0.799988
      vertex 83.9942 110.695 0.799988
      vertex 83.9942 110.695 0
    endloop
  endfacet
  facet normal 0.857734 -0.514093 0
    outer loop
      vertex 83.9942 110.695 0.799988
      vertex 83.023 109.074 0
      vertex 83.9942 110.695 0
    endloop
  endfacet
  facet normal 0.857734 -0.514093 0
    outer loop
      vertex 83.9942 110.695 0.799988
      vertex 83.023 109.074 0.799988
      vertex 83.023 109.074 0
    endloop
  endfacet
  facet normal 0.903987 -0.42756 0
    outer loop
      vertex 83.023 109.074 0.799988
      vertex 82.2153 107.367 0
      vertex 83.023 109.074 0
    endloop
  endfacet
  facet normal 0.903987 -0.42756 0
    outer loop
      vertex 83.023 109.074 0.799988
      vertex 82.2153 107.367 0.799988
      vertex 82.2153 107.367 0
    endloop
  endfacet
  facet normal 0.941548 -0.336879 0
    outer loop
      vertex 82.2153 107.367 0.799988
      vertex 81.5789 105.588 0
      vertex 82.2153 107.367 0
    endloop
  endfacet
  facet normal 0.941548 -0.336879 0
    outer loop
      vertex 82.2153 107.367 0.799988
      vertex 81.5789 105.588 0.799988
      vertex 81.5789 105.588 0
    endloop
  endfacet
  facet normal 0.970033 -0.242971 0
    outer loop
      vertex 81.5789 105.588 0.799988
      vertex 81.1199 103.755 0
      vertex 81.5789 105.588 0
    endloop
  endfacet
  facet normal 0.970033 -0.242971 0
    outer loop
      vertex 81.5789 105.588 0.799988
      vertex 81.1199 103.755 0.799988
      vertex 81.1199 103.755 0
    endloop
  endfacet
  facet normal 0.989175 -0.14674 0
    outer loop
      vertex 81.1199 103.755 0.799988
      vertex 80.8427 101.887 0
      vertex 81.1199 103.755 0
    endloop
  endfacet
  facet normal 0.989175 -0.14674 0
    outer loop
      vertex 81.1199 103.755 0.799988
      vertex 80.8427 101.887 0.799988
      vertex 80.8427 101.887 0
    endloop
  endfacet
  facet normal 0.998795 -0.0490701 0
    outer loop
      vertex 80.8427 101.887 0.799988
      vertex 80.75 100 0
      vertex 80.8427 101.887 0
    endloop
  endfacet
  facet normal 0.998795 -0.0490701 0
    outer loop
      vertex 80.8427 101.887 0.799988
      vertex 80.75 100 0.799988
      vertex 80.75 100 0
    endloop
  endfacet
  facet normal 0.998795 0.0490678 0
    outer loop
      vertex 133 100 0
      vertex 132.841 103.234 0.799988
      vertex 133 100 0.799988
    endloop
  endfacet
  facet normal 0.998795 0.0490678 0
    outer loop
      vertex 133 100 0
      vertex 132.841 103.234 0
      vertex 132.841 103.234 0.799988
    endloop
  endfacet
  facet normal 0.989176 0.146737 0
    outer loop
      vertex 132.841 103.234 0
      vertex 132.366 106.438 0.799988
      vertex 132.841 103.234 0.799988
    endloop
  endfacet
  facet normal 0.989176 0.146737 0
    outer loop
      vertex 132.841 103.234 0
      vertex 132.366 106.438 0
      vertex 132.366 106.438 0.799988
    endloop
  endfacet
  facet normal 0.970032 0.242979 0
    outer loop
      vertex 132.366 106.438 0
      vertex 131.579 109.579 0.799988
      vertex 132.366 106.438 0.799988
    endloop
  endfacet
  facet normal 0.970032 0.242979 0
    outer loop
      vertex 132.366 106.438 0
      vertex 131.579 109.579 0
      vertex 131.579 109.579 0.799988
    endloop
  endfacet
  facet normal 0.941543 0.336894 0
    outer loop
      vertex 131.579 109.579 0
      vertex 130.488 112.629 0.799988
      vertex 131.579 109.579 0.799988
    endloop
  endfacet
  facet normal 0.941543 0.336894 0
    outer loop
      vertex 131.579 109.579 0
      vertex 130.488 112.629 0
      vertex 130.488 112.629 0.799988
    endloop
  endfacet
  facet normal 0.903995 0.427542 0
    outer loop
      vertex 130.488 112.629 0
      vertex 129.103 115.556 0.799988
      vertex 130.488 112.629 0.799988
    endloop
  endfacet
  facet normal 0.903995 0.427542 0
    outer loop
      vertex 130.488 112.629 0
      vertex 129.103 115.556 0
      vertex 129.103 115.556 0.799988
    endloop
  endfacet
  facet normal 0.857727 0.514105 0
    outer loop
      vertex 129.103 115.556 0
      vertex 127.438 118.334 0.799988
      vertex 129.103 115.556 0.799988
    endloop
  endfacet
  facet normal 0.857727 0.514105 0
    outer loop
      vertex 129.103 115.556 0
      vertex 127.438 118.334 0
      vertex 127.438 118.334 0.799988
    endloop
  endfacet
  facet normal 0.803209 0.595698 0
    outer loop
      vertex 127.438 118.334 0
      vertex 125.509 120.935 0.799988
      vertex 127.438 118.334 0.799988
    endloop
  endfacet
  facet normal 0.803209 0.595698 0
    outer loop
      vertex 127.438 118.334 0
      vertex 125.509 120.935 0
      vertex 125.509 120.935 0.799988
    endloop
  endfacet
  facet normal 0.740946 0.671564 0
    outer loop
      vertex 125.509 120.935 0
      vertex 123.334 123.335 0.799988
      vertex 125.509 120.935 0.799988
    endloop
  endfacet
  facet normal 0.740946 0.671564 0
    outer loop
      vertex 125.509 120.935 0
      vertex 123.334 123.335 0
      vertex 123.334 123.335 0.799988
    endloop
  endfacet
  facet normal 0.671562 0.740948 0
    outer loop
      vertex 123.334 123.335 0
      vertex 120.935 125.509 0.799988
      vertex 123.334 123.335 0.799988
    endloop
  endfacet
  facet normal 0.671562 0.740948 0
    outer loop
      vertex 123.334 123.335 0
      vertex 120.935 125.509 0
      vertex 120.935 125.509 0.799988
    endloop
  endfacet
  facet normal 0.595703 0.803204 0
    outer loop
      vertex 120.935 125.509 0
      vertex 118.334 127.439 0.799988
      vertex 120.935 125.509 0.799988
    endloop
  endfacet
  facet normal 0.595703 0.803204 0
    outer loop
      vertex 120.935 125.509 0
      vertex 118.334 127.439 0
      vertex 118.334 127.439 0.799988
    endloop
  endfacet
  facet normal 0.514105 0.857727 0
    outer loop
      vertex 118.334 127.439 0
      vertex 115.556 129.103 0.799988
      vertex 118.334 127.439 0.799988
    endloop
  endfacet
  facet normal 0.514105 0.857727 0
    outer loop
      vertex 118.334 127.439 0
      vertex 115.556 129.103 0
      vertex 115.556 129.103 0.799988
    endloop
  endfacet
  facet normal 0.427555 0.903989 0
    outer loop
      vertex 115.556 129.103 0
      vertex 112.629 130.488 0.799988
      vertex 115.556 129.103 0.799988
    endloop
  endfacet
  facet normal 0.427555 0.903989 0
    outer loop
      vertex 115.556 129.103 0
      vertex 112.629 130.488 0
      vertex 112.629 130.488 0.799988
    endloop
  endfacet
  facet normal 0.336883 0.941546 0
    outer loop
      vertex 112.629 130.488 0
      vertex 109.579 131.579 0.799988
      vertex 112.629 130.488 0.799988
    endloop
  endfacet
  facet normal 0.336883 0.941546 0
    outer loop
      vertex 112.629 130.488 0
      vertex 109.579 131.579 0
      vertex 109.579 131.579 0.799988
    endloop
  endfacet
  facet normal 0.242987 0.97003 0
    outer loop
      vertex 109.579 131.579 0
      vertex 106.438 132.366 0.799988
      vertex 109.579 131.579 0.799988
    endloop
  endfacet
  facet normal 0.242987 0.97003 0
    outer loop
      vertex 109.579 131.579 0
      vertex 106.438 132.366 0
      vertex 106.438 132.366 0.799988
    endloop
  endfacet
  facet normal 0.146736 0.989176 0
    outer loop
      vertex 106.438 132.366 0
      vertex 103.235 132.841 0.799988
      vertex 106.438 132.366 0.799988
    endloop
  endfacet
  facet normal 0.146736 0.989176 0
    outer loop
      vertex 106.438 132.366 0
      vertex 103.235 132.841 0
      vertex 103.235 132.841 0.799988
    endloop
  endfacet
  facet normal 0.0490663 0.998796 0
    outer loop
      vertex 103.235 132.841 0
      vertex 100 133 0.799988
      vertex 103.235 132.841 0.799988
    endloop
  endfacet
  facet normal 0.0490663 0.998796 0
    outer loop
      vertex 103.235 132.841 0
      vertex 100 133 0
      vertex 100 133 0.799988
    endloop
  endfacet
  facet normal -0.0490662 0.998796 0
    outer loop
      vertex 100 133 0
      vertex 96.7654 132.841 0.799988
      vertex 100 133 0.799988
    endloop
  endfacet
  facet normal -0.0490662 0.998796 0
    outer loop
      vertex 100 133 0
      vertex 96.7654 132.841 0
      vertex 96.7654 132.841 0.799988
    endloop
  endfacet
  facet normal -0.146736 0.989176 0
    outer loop
      vertex 96.7654 132.841 0
      vertex 93.562 132.366 0.799988
      vertex 96.7654 132.841 0.799988
    endloop
  endfacet
  facet normal -0.146736 0.989176 0
    outer loop
      vertex 96.7654 132.841 0
      vertex 93.562 132.366 0
      vertex 93.562 132.366 0.799988
    endloop
  endfacet
  facet normal -0.242987 0.970029 0
    outer loop
      vertex 93.562 132.366 0
      vertex 90.4206 131.579 0.799988
      vertex 93.562 132.366 0.799988
    endloop
  endfacet
  facet normal -0.242987 0.970029 0
    outer loop
      vertex 93.562 132.366 0
      vertex 90.4206 131.579 0
      vertex 90.4206 131.579 0.799988
    endloop
  endfacet
  facet normal -0.336893 0.941543 0
    outer loop
      vertex 90.4206 131.579 0
      vertex 87.3715 130.488 0.799988
      vertex 90.4206 131.579 0.799988
    endloop
  endfacet
  facet normal -0.336893 0.941543 0
    outer loop
      vertex 90.4206 131.579 0
      vertex 87.3715 130.488 0
      vertex 87.3715 130.488 0.799988
    endloop
  endfacet
  facet normal -0.427543 0.903995 0
    outer loop
      vertex 87.3715 130.488 0
      vertex 84.4439 129.103 0.799988
      vertex 87.3715 130.488 0.799988
    endloop
  endfacet
  facet normal -0.427543 0.903995 0
    outer loop
      vertex 87.3715 130.488 0
      vertex 84.4439 129.103 0
      vertex 84.4439 129.103 0.799988
    endloop
  endfacet
  facet normal -0.514105 0.857727 0
    outer loop
      vertex 84.4439 129.103 0
      vertex 81.6662 127.439 0.799988
      vertex 84.4439 129.103 0.799988
    endloop
  endfacet
  facet normal -0.514105 0.857727 0
    outer loop
      vertex 84.4439 129.103 0
      vertex 81.6662 127.439 0
      vertex 81.6662 127.439 0.799988
    endloop
  endfacet
  facet normal -0.595702 0.803205 0
    outer loop
      vertex 81.6662 127.439 0
      vertex 79.065 125.509 0.799988
      vertex 81.6662 127.439 0.799988
    endloop
  endfacet
  facet normal -0.595702 0.803205 0
    outer loop
      vertex 81.6662 127.439 0
      vertex 79.065 125.509 0
      vertex 79.065 125.509 0.799988
    endloop
  endfacet
  facet normal -0.671563 0.740948 0
    outer loop
      vertex 79.065 125.509 0
      vertex 76.6655 123.335 0.799988
      vertex 79.065 125.509 0.799988
    endloop
  endfacet
  facet normal -0.671563 0.740948 0
    outer loop
      vertex 79.065 125.509 0
      vertex 76.6655 123.335 0
      vertex 76.6655 123.335 0.799988
    endloop
  endfacet
  facet normal -0.740962 0.671547 0
    outer loop
      vertex 76.6655 123.335 0
      vertex 74.4907 120.935 0.799988
      vertex 76.6655 123.335 0.799988
    endloop
  endfacet
  facet normal -0.740962 0.671547 0
    outer loop
      vertex 76.6655 123.335 0
      vertex 74.4907 120.935 0
      vertex 74.4907 120.935 0.799988
    endloop
  endfacet
  facet normal -0.803194 0.595717 0
    outer loop
      vertex 74.4907 120.935 0
      vertex 72.5615 118.334 0.799988
      vertex 74.4907 120.935 0.799988
    endloop
  endfacet
  facet normal -0.803194 0.595717 0
    outer loop
      vertex 74.4907 120.935 0
      vertex 72.5615 118.334 0
      vertex 72.5615 118.334 0.799988
    endloop
  endfacet
  facet normal -0.857727 0.514106 0
    outer loop
      vertex 72.5615 118.334 0
      vertex 70.8966 115.556 0.799988
      vertex 72.5615 118.334 0.799988
    endloop
  endfacet
  facet normal -0.857727 0.514106 0
    outer loop
      vertex 72.5615 118.334 0
      vertex 70.8966 115.556 0
      vertex 70.8966 115.556 0.799988
    endloop
  endfacet
  facet normal -0.903996 0.427541 0
    outer loop
      vertex 70.8966 115.556 0
      vertex 69.512 112.629 0.799988
      vertex 70.8966 115.556 0.799988
    endloop
  endfacet
  facet normal -0.903996 0.427541 0
    outer loop
      vertex 70.8966 115.556 0
      vertex 69.512 112.629 0
      vertex 69.512 112.629 0.799988
    endloop
  endfacet
  facet normal -0.941542 0.336895 0
    outer loop
      vertex 69.512 112.629 0
      vertex 68.421 109.579 0.799988
      vertex 69.512 112.629 0.799988
    endloop
  endfacet
  facet normal -0.941542 0.336895 0
    outer loop
      vertex 69.512 112.629 0
      vertex 68.421 109.579 0
      vertex 68.421 109.579 0.799988
    endloop
  endfacet
  facet normal -0.970032 0.242978 0
    outer loop
      vertex 68.421 109.579 0
      vertex 67.6341 106.438 0.799988
      vertex 68.421 109.579 0.799988
    endloop
  endfacet
  facet normal -0.970032 0.242978 0
    outer loop
      vertex 68.421 109.579 0
      vertex 67.6341 106.438 0
      vertex 67.6341 106.438 0.799988
    endloop
  endfacet
  facet normal -0.989175 0.146738 0
    outer loop
      vertex 67.6341 106.438 0
      vertex 67.1589 103.234 0.799988
      vertex 67.6341 106.438 0.799988
    endloop
  endfacet
  facet normal -0.989175 0.146738 0
    outer loop
      vertex 67.6341 106.438 0
      vertex 67.1589 103.234 0
      vertex 67.1589 103.234 0.799988
    endloop
  endfacet
  facet normal -0.998796 0.0490666 0
    outer loop
      vertex 67.1589 103.234 0
      vertex 67 100 0.799988
      vertex 67.1589 103.234 0.799988
    endloop
  endfacet
  facet normal -0.998796 0.0490666 0
    outer loop
      vertex 67.1589 103.234 0
      vertex 67 100 0
      vertex 67 100 0.799988
    endloop
  endfacet
  facet normal 0 0 -1
    outer loop
      vertex 100 67 0
      vertex 96.7654 67.1589 0
      vertex 103.235 67.1589 0
    endloop
  endfacet
  facet normal 0 0 -1
    outer loop
      vertex 96.7654 67.1589 0
      vertex 93.562 67.634 0
      vertex 103.235 67.1589 0
    endloop
  endfacet
  facet normal 0 0 -1
    outer loop
      vertex 103.235 67.1589 0
      vertex 93.562 67.634 0
      vertex 106.438 67.634 0
    endloop
  endfacet
  facet normal 0 0 -1
    outer loop
      vertex 93.562 67.634 0
      vertex 90.4206 68.4209 0
      vertex 106.438 67.634 0
    endloop
  endfacet
  facet normal 0 0 -1
    outer loop
      vertex 106.438 67.634 0
      vertex 90.4206 68.4209 0
      vertex 109.579 68.4209 0
    endloop
  endfacet
  facet normal 0 0 -1
    outer loop
      vertex 90.4206 68.4209 0
      vertex 87.3715 69.5119 0
      vertex 109.579 68.4209 0
    endloop
  endfacet
  facet normal 0 0 -1
    outer loop
      vertex 109.579 68.4209 0
      vertex 87.3715 69.5119 0
      vertex 112.629 69.5119 0
    endloop
  endfacet
  facet normal 0 0 -1
    outer loop
      vertex 87.3715 69.5119 0
      vertex 84.4439 70.8966 0
      vertex 112.629 69.5119 0
    endloop
  endfacet
  facet normal 0 0 -1
    outer loop
      vertex 112.629 69.5119 0
      vertex 84.4439 70.8966 0
      vertex 115.556 70.8966 0
    endloop
  endfacet
  facet normal 0 0 -1
    outer loop
      vertex 84.4439 70.8966 0
      vertex 81.6662 72.5615 0
      vertex 115.556 70.8966 0
    endloop
  endfacet
  facet normal 0 0 -1
    outer loop
      vertex 115.556 70.8966 0
      vertex 81.6662 72.5615 0
      vertex 118.334 72.5615 0
    endloop
  endfacet
  facet normal 0 0 -1
    outer loop
      vertex 81.6662 72.5615 0
      vertex 79.065 74.4906 0
      vertex 118.334 72.5615 0
    endloop
  endfacet
  facet normal 0 0 -1
    outer loop
      vertex 118.334 72.5615 0
      vertex 79.065 74.4906 0
      vertex 120.935 74.4906 0
    endloop
  endfacet
  facet normal 0 0 -1
    outer loop
      vertex 79.065 74.4906 0
      vertex 76.6655 76.6654 0
      vertex 120.935 74.4906 0
    endloop
  endfacet
  facet normal 0 0 -1
    outer loop
      vertex 120.935 74.4906 0
      vertex 76.6655 76.6654 0
      vertex 123.334 76.6654 0
    endloop
  endfacet
  facet normal 0 0 -1
    outer loop
      vertex 76.6655 76.6654 0
      vertex 74.4907 79.065 0
      vertex 123.334 76.6654 0
    endloop
  endfacet
  facet normal 0 0 -1
    outer loop
      vertex 123.334 76.6654 0
      vertex 74.4907 79.065 0
      vertex 125.509 79.065 0
    endloop
  endfacet
  facet normal 0 0 -1
    outer loop
      vertex 74.4907 79.065 0
      vertex 100 80.75 0
      vertex 125.509 79.065 0
    endloop
  endfacet
  facet normal 0 0 -1
    outer loop
      vertex 125.509 79.065 0
      vertex 100 80.75 0
      vertex 101.887 80.8427 0
    endloop
  endfacet
  facet normal 0 0 -1
    outer loop
      vertex 74.4907 79.065 0
      vertex 72.5615 81.6661 0
      vertex 94.412 81.5789 0
    endloop
  endfacet
  facet normal 0 0 -1
    outer loop
      vertex 74.4907 79.065 0
      vertex 94.412 81.5789 0
      vertex 96.2445 81.1198 0
    endloop
  endfacet
  facet normal 0 0 -1
    outer loop
      vertex 74.4907 79.065 0
      vertex 96.2445 81.1198 0
      vertex 98.1132 80.8427 0
    endloop
  endfacet
  facet normal 0 0 -1
    outer loop
      vertex 74.4907 79.065 0
      vertex 98.1132 80.8427 0
      vertex 100 80.75 0
    endloop
  endfacet
  facet normal 0 0 -1
    outer loop
      vertex 72.5615 81.6661 0
      vertex 70.8966 84.4439 0
      vertex 89.3053 83.9942 0
    endloop
  endfacet
  facet normal 0 0 -1
    outer loop
      vertex 72.5615 81.6661 0
      vertex 89.3053 83.9942 0
      vertex 90.9256 83.023 0
    endloop
  endfacet
  facet normal 0 0 -1
    outer loop
      vertex 72.5615 81.6661 0
      vertex 90.9256 83.023 0
      vertex 92.6334 82.2153 0
    endloop
  endfacet
  facet normal 0 0 -1
    outer loop
      vertex 72.5615 81.6661 0
      vertex 92.6334 82.2153 0
      vertex 94.412 81.5789 0
    endloop
  endfacet
  facet normal 0 0 -1
    outer loop
      vertex 83.9942 89.3052 0
      vertex 85.1196 87.7879 0
      vertex 69.512 87.3714 0
    endloop
  endfacet
  facet normal 0 0 -1
    outer loop
      vertex 85.1196 87.7879 0
      vertex 86.3882 86.3882 0
      vertex 69.512 87.3714 0
    endloop
  endfacet
  facet normal 0 0 -1
    outer loop
      vertex 69.512 87.3714 0
      vertex 86.3882 86.3882 0
      vertex 70.8966 84.4439 0
    endloop
  endfacet
  facet normal 0 0 -1
    outer loop
      vertex 86.3882 86.3882 0
      vertex 87.7879 85.1195 0
      vertex 70.8966 84.4439 0
    endloop
  endfacet
  facet normal 0 0 -1
    outer loop
      vertex 70.8966 84.4439 0
      vertex 87.7879 85.1195 0
      vertex 89.3053 83.9942 0
    endloop
  endfacet
  facet normal 0 0 -1
    outer loop
      vertex 68.421 90.4206 0
      vertex 67.6341 93.562 0
      vertex 82.2153 92.6333 0
    endloop
  endfacet
  facet normal 0 0 -1
    outer loop
      vertex 68.421 90.4206 0
      vertex 82.2153 92.6333 0
      vertex 83.023 90.9256 0
    endloop
  endfacet
  facet normal 0 0 -1
    outer loop
      vertex 68.421 90.4206 0
      vertex 83.023 90.9256 0
      vertex 83.9942 89.3052 0
    endloop
  endfacet
  facet normal 0 0 -1
    outer loop
      vertex 68.421 90.4206 0
      vertex 83.9942 89.3052 0
      vertex 69.512 87.3714 0
    endloop
  endfacet
  facet normal 0 0 -1
    outer loop
      vertex 80.8427 101.887 0
      vertex 80.75 100 0
      vertex 67 100 0
    endloop
  endfacet
  facet normal 0 0 -1
    outer loop
      vertex 80.75 100 0
      vertex 80.8427 98.1131 0
      vertex 67 100 0
    endloop
  endfacet
  facet normal 0 0 -1
    outer loop
      vertex 67 100 0
      vertex 80.8427 98.1131 0
      vertex 67.1589 96.7654 0
    endloop
  endfacet
  facet normal 0 0 -1
    outer loop
      vertex 80.8427 98.1131 0
      vertex 81.1199 96.2445 0
      vertex 67.1589 96.7654 0
    endloop
  endfacet
  facet normal 0 0 -1
    outer loop
      vertex 67.1589 96.7654 0
      vertex 81.1199 96.2445 0
      vertex 67.6341 93.562 0
    endloop
  endfacet
  facet normal 0 0 -1
    outer loop
      vertex 81.1199 96.2445 0
      vertex 81.5789 94.412 0
      vertex 67.6341 93.562 0
    endloop
  endfacet
  facet normal 0 0 -1
    outer loop
      vertex 67.6341 93.562 0
      vertex 81.5789 94.412 0
      vertex 82.2153 92.6333 0
    endloop
  endfacet
  facet normal 0 0 -1
    outer loop
      vertex 67.1589 103.234 0
      vertex 67.6341 106.438 0
      vertex 81.5789 105.588 0
    endloop
  endfacet
  facet normal 0 0 -1
    outer loop
      vertex 67.1589 103.234 0
      vertex 81.5789 105.588 0
      vertex 81.1199 103.755 0
    endloop
  endfacet
  facet normal 0 0 -1
    outer loop
      vertex 67.1589 103.234 0
      vertex 81.1199 103.755 0
      vertex 80.8427 101.887 0
    endloop
  endfacet
  facet normal 0 0 -1
    outer loop
      vertex 67.1589 103.234 0
      vertex 80.8427 101.887 0
      vertex 67 100 0
    endloop
  endfacet
  facet normal 0 0 -1
    outer loop
      vertex 85.1196 112.212 0
      vertex 83.9942 110.695 0
      vertex 68.421 109.579 0
    endloop
  endfacet
  facet normal 0 0 -1
    outer loop
      vertex 83.9942 110.695 0
      vertex 83.023 109.074 0
      vertex 68.421 109.579 0
    endloop
  endfacet
  facet normal 0 0 -1
    outer loop
      vertex 68.421 109.579 0
      vertex 83.023 109.074 0
      vertex 67.6341 106.438 0
    endloop
  endfacet
  facet normal 0 0 -1
    outer loop
      vertex 83.023 109.074 0
      vertex 82.2153 107.367 0
      vertex 67.6341 106.438 0
    endloop
  endfacet
  facet normal 0 0 -1
    outer loop
      vertex 67.6341 106.438 0
      vertex 82.2153 107.367 0
      vertex 81.5789 105.588 0
    endloop
  endfacet
  facet normal 0 0 -1
    outer loop
      vertex 69.512 112.629 0
      vertex 70.8966 115.556 0
      vertex 87.7879 114.88 0
    endloop
  endfacet
  facet normal 0 0 -1
    outer loop
      vertex 69.512 112.629 0
      vertex 87.7879 114.88 0
      vertex 86.3882 113.612 0
    endloop
  endfacet
  facet normal 0 0 -1
    outer loop
      vertex 69.512 112.629 0
      vertex 86.3882 113.612 0
      vertex 85.1196 112.212 0
    endloop
  endfacet
  facet normal 0 0 -1
    outer loop
      vertex 69.512 112.629 0
      vertex 85.1196 112.212 0
      vertex 68.421 109.579 0
    endloop
  endfacet
  facet normal 0 0 -1
    outer loop
      vertex 70.8966 115.556 0
      vertex 72.5615 118.334 0
      vertex 92.6334 117.785 0
    endloop
  endfacet
  facet normal 0 0 -1
    outer loop
      vertex 70.8966 115.556 0
      vertex 92.6334 117.785 0
      vertex 90.9256 116.977 0
    endloop
  endfacet
  facet normal 0 0 -1
    outer loop
      vertex 70.8966 115.556 0
      vertex 90.9256 116.977 0
      vertex 89.3053 116.006 0
    endloop
  endfacet
  facet normal 0 0 -1
    outer loop
      vertex 70.8966 115.556 0
      vertex 89.3053 116.006 0
      vertex 87.7879 114.88 0
    endloop
  endfacet
  facet normal 0 0 -1
    outer loop
      vertex 72.5615 118.334 0
      vertex 74.4907 120.935 0
      vertex 100 119.25 0
    endloop
  endfacet
  facet normal 0 0 -1
    outer loop
      vertex 72.5615 118.334 0
      vertex 100 119.25 0
      vertex 98.1132 119.157 0
    endloop
  endfacet
  facet normal 0 0 -1
    outer loop
      vertex 72.5615 118.334 0
      vertex 98.1132 119.157 0
      vertex 96.2445 118.88 0
    endloop
  endfacet
  facet normal 0 0 -1
    outer loop
      vertex 72.5615 118.334 0
      vertex 96.2445 118.88 0
      vertex 94.412 118.421 0
    endloop
  endfacet
  facet normal 0 0 -1
    outer loop
      vertex 72.5615 118.334 0
      vertex 94.412 118.421 0
      vertex 92.6334 117.785 0
    endloop
  endfacet
  facet normal 0 0 -1
    outer loop
      vertex 101.887 80.8427 0
      vertex 103.756 81.1198 0
      vertex 125.509 79.065 0
    endloop
  endfacet
  facet normal 0 0 -1
    outer loop
      vertex 103.756 81.1198 0
      vertex 105.588 81.5789 0
      vertex 125.509 79.065 0
    endloop
  endfacet
  facet normal 0 0 -1
    outer loop
      vertex 125.509 79.065 0
      vertex 105.588 81.5789 0
      vertex 127.438 81.6661 0
    endloop
  endfacet
  facet normal 0 0 -1
    outer loop
      vertex 105.588 81.5789 0
      vertex 107.367 82.2153 0
      vertex 127.438 81.6661 0
    endloop
  endfacet
  facet normal 0 0 -1
    outer loop
      vertex 127.438 81.6661 0
      vertex 107.367 82.2153 0
      vertex 109.074 83.023 0
    endloop
  endfacet
  facet normal 0 0 -1
    outer loop
      vertex 110.695 83.9942 0
      vertex 112.212 85.1195 0
      vertex 129.103 84.4439 0
    endloop
  endfacet
  facet normal 0 0 -1
    outer loop
      vertex 110.695 83.9942 0
      vertex 129.103 84.4439 0
      vertex 127.438 81.6661 0
    endloop
  endfacet
  facet normal 0 0 -1
    outer loop
      vertex 110.695 83.9942 0
      vertex 127.438 81.6661 0
      vertex 109.074 83.023 0
    endloop
  endfacet
  facet normal 0 0 -1
    outer loop
      vertex 113.612 86.3882 0
      vertex 114.881 87.7879 0
      vertex 130.488 87.3714 0
    endloop
  endfacet
  facet normal 0 0 -1
    outer loop
      vertex 113.612 86.3882 0
      vertex 130.488 87.3714 0
      vertex 129.103 84.4439 0
    endloop
  endfacet
  facet normal 0 0 -1
    outer loop
      vertex 113.612 86.3882 0
      vertex 129.103 84.4439 0
      vertex 112.212 85.1195 0
    endloop
  endfacet
  facet normal 0 0 -1
    outer loop
      vertex 116.006 89.3052 0
      vertex 116.977 90.9256 0
      vertex 131.579 90.4206 0
    endloop
  endfacet
  facet normal 0 0 -1
    outer loop
      vertex 116.006 89.3052 0
      vertex 131.579 90.4206 0
      vertex 130.488 87.3714 0
    endloop
  endfacet
  facet normal 0 0 -1
    outer loop
      vertex 116.006 89.3052 0
      vertex 130.488 87.3714 0
      vertex 114.881 87.7879 0
    endloop
  endfacet
  facet normal 0 0 -1
    outer loop
      vertex 117.785 92.6333 0
      vertex 118.421 94.412 0
      vertex 132.366 93.562 0
    endloop
  endfacet
  facet normal 0 0 -1
    outer loop
      vertex 117.785 92.6333 0
      vertex 132.366 93.562 0
      vertex 131.579 90.4206 0
    endloop
  endfacet
  facet normal 0 0 -1
    outer loop
      vertex 117.785 92.6333 0
      vertex 131.579 90.4206 0
      vertex 116.977 90.9256 0
    endloop
  endfacet
  facet normal 0 0 -1
    outer loop
      vertex 118.88 96.2445 0
      vertex 119.157 98.1131 0
      vertex 132.841 96.7654 0
    endloop
  endfacet
  facet normal 0 0 -1
    outer loop
      vertex 118.88 96.2445 0
      vertex 132.841 96.7654 0
      vertex 132.366 93.562 0
    endloop
  endfacet
  facet normal 0 0 -1
    outer loop
      vertex 118.88 96.2445 0
      vertex 132.366 93.562 0
      vertex 118.421 94.412 0
    endloop
  endfacet
  facet normal 0 0 -1
    outer loop
      vertex 118.88 103.755 0
      vertex 132.841 103.234 0
      vertex 119.157 101.887 0
    endloop
  endfacet
  facet normal 0 0 -1
    outer loop
      vertex 132.841 103.234 0
      vertex 133 100 0
      vertex 119.157 101.887 0
    endloop
  endfacet
  facet normal 0 0 -1
    outer loop
      vertex 119.157 101.887 0
      vertex 133 100 0
      vertex 119.25 100 0
    endloop
  endfacet
  facet normal 0 0 -1
    outer loop
      vertex 133 100 0
      vertex 132.841 96.7654 0
      vertex 119.25 100 0
    endloop
  endfacet
  facet normal 0 0 -1
    outer loop
      vertex 119.25 100 0
      vertex 132.841 96.7654 0
      vertex 119.157 98.1131 0
    endloop
  endfacet
  facet normal 0 0 -1
    outer loop
      vertex 118.421 105.588 0
      vertex 117.785 107.367 0
      vertex 132.366 106.438 0
    endloop
  endfacet
  facet normal 0 0 -1
    outer loop
      vertex 118.421 105.588 0
      vertex 132.366 106.438 0
      vertex 132.841 103.234 0
    endloop
  endfacet
  facet normal 0 0 -1
    outer loop
      vertex 118.421 105.588 0
      vertex 132.841 103.234 0
      vertex 118.88 103.755 0
    endloop
  endfacet
  facet normal 0 0 -1
    outer loop
      vertex 116.977 109.074 0
      vertex 116.006 110.695 0
      vertex 131.579 109.579 0
    endloop
  endfacet
  facet normal 0 0 -1
    outer loop
      vertex 116.977 109.074 0
      vertex 131.579 109.579 0
      vertex 132.366 106.438 0
    endloop
  endfacet
  facet normal 0 0 -1
    outer loop
      vertex 116.977 109.074 0
      vertex 132.366 106.438 0
      vertex 117.785 107.367 0
    endloop
  endfacet
  facet normal 0 0 -1
    outer loop
      vertex 114.881 112.212 0
      vertex 113.612 113.612 0
      vertex 130.488 112.629 0
    endloop
  endfacet
  facet normal 0 0 -1
    outer loop
      vertex 114.881 112.212 0
      vertex 130.488 112.629 0
      vertex 131.579 109.579 0
    endloop
  endfacet
  facet normal 0 0 -1
    outer loop
      vertex 114.881 112.212 0
      vertex 131.579 109.579 0
      vertex 116.006 110.695 0
    endloop
  endfacet
  facet normal 0 0 -1
    outer loop
      vertex 112.212 114.88 0
      vertex 110.695 116.006 0
      vertex 129.103 115.556 0
    endloop
  endfacet
  facet normal 0 0 -1
    outer loop
      vertex 112.212 114.88 0
      vertex 129.103 115.556 0
      vertex 130.488 112.629 0
    endloop
  endfacet
  facet normal 0 0 -1
    outer loop
      vertex 112.212 114.88 0
      vertex 130.488 112.629 0
      vertex 113.612 113.612 0
    endloop
  endfacet
  facet normal 0 0 -1
    outer loop
      vertex 110.695 116.006 0
      vertex 109.074 116.977 0
      vertex 129.103 115.556 0
    endloop
  endfacet
  facet normal 0 0 -1
    outer loop
      vertex 109.074 116.977 0
      vertex 107.367 117.785 0
      vertex 129.103 115.556 0
    endloop
  endfacet
  facet normal 0 0 -1
    outer loop
      vertex 129.103 115.556 0
      vertex 107.367 117.785 0
      vertex 127.438 118.334 0
    endloop
  endfacet
  facet normal 0 0 -1
    outer loop
      vertex 107.367 117.785 0
      vertex 105.588 118.421 0
      vertex 127.438 118.334 0
    endloop
  endfacet
  facet normal 0 0 -1
    outer loop
      vertex 127.438 118.334 0
      vertex 105.588 118.421 0
      vertex 103.756 118.88 0
    endloop
  endfacet
  facet normal 0 0 -1
    outer loop
      vertex 127.438 118.334 0
      vertex 103.756 118.88 0
      vertex 101.887 119.157 0
    endloop
  endfacet
  facet normal 0 0 -1
    outer loop
      vertex 127.438 118.334 0
      vertex 101.887 119.157 0
      vertex 100 119.25 0
    endloop
  endfacet
  facet normal 0 0 -1
    outer loop
      vertex 127.438 118.334 0
      vertex 100 119.25 0
      vertex 74.4907 120.935 0
    endloop
  endfacet
  facet normal 0 0 -1
    outer loop
      vertex 127.438 118.334 0
      vertex 74.4907 120.935 0
      vertex 125.509 120.935 0
    endloop
  endfacet
  facet normal 0 0 -1
    outer loop
      vertex 100 133 0
      vertex 103.235 132.841 0
      vertex 96.7654 132.841 0
    endloop
  endfacet
  facet normal 0 0 -1
    outer loop
      vertex 103.235 132.841 0
      vertex 106.438 132.366 0
      vertex 96.7654 132.841 0
    endloop
  endfacet
  facet normal 0 0 -1
    outer loop
      vertex 96.7654 132.841 0
      vertex 106.438 132.366 0
      vertex 93.562 132.366 0
    endloop
  endfacet
  facet normal 0 0 -1
    outer loop
      vertex 106.438 132.366 0
      vertex 109.579 131.579 0
      vertex 93.562 132.366 0
    endloop
  endfacet
  facet normal 0 0 -1
    outer loop
      vertex 93.562 132.366 0
      vertex 109.579 131.579 0
      vertex 90.4206 131.579 0
    endloop
  endfacet
  facet normal 0 0 -1
    outer loop
      vertex 109.579 131.579 0
      vertex 112.629 130.488 0
      vertex 90.4206 131.579 0
    endloop
  endfacet
  facet normal 0 0 -1
    outer loop
      vertex 90.4206 131.579 0
      vertex 112.629 130.488 0
      vertex 87.3715 130.488 0
    endloop
  endfacet
  facet normal 0 0 -1
    outer loop
      vertex 112.629 130.488 0
      vertex 115.556 129.103 0
      vertex 87.3715 130.488 0
    endloop
  endfacet
  facet normal 0 0 -1
    outer loop
      vertex 87.3715 130.488 0
      vertex 115.556 129.103 0
      vertex 84.4439 129.103 0
    endloop
  endfacet
  facet normal 0 0 -1
    outer loop
      vertex 115.556 129.103 0
      vertex 118.334 127.439 0
      vertex 84.4439 129.103 0
    endloop
  endfacet
  facet normal 0 0 -1
    outer loop
      vertex 84.4439 129.103 0
      vertex 118.334 127.439 0
      vertex 81.6662 127.439 0
    endloop
  endfacet
  facet normal 0 0 -1
    outer loop
      vertex 118.334 127.439 0
      vertex 120.935 125.509 0
      vertex 81.6662 127.439 0
    endloop
  endfacet
  facet normal 0 0 -1
    outer loop
      vertex 81.6662 127.439 0
      vertex 120.935 125.509 0
      vertex 79.065 125.509 0
    endloop
  endfacet
  facet normal 0 0 -1
    outer loop
      vertex 120.935 125.509 0
      vertex 123.334 123.335 0
      vertex 79.065 125.509 0
    endloop
  endfacet
  facet normal 0 0 -1
    outer loop
      vertex 79.065 125.509 0
      vertex 123.334 123.335 0
      vertex 76.6655 123.335 0
    endloop
  endfacet
  facet normal 0 0 -1
    outer loop
      vertex 123.334 123.335 0
      vertex 125.509 120.935 0
      vertex 76.6655 123.335 0
    endloop
  endfacet
  facet normal 0 0 -1
    outer loop
      vertex 76.6655 123.335 0
      vertex 125.509 120.935 0
      vertex 74.4907 120.935 0
    endloop
  endfacet
  facet normal 0.998795 0.0490675 0
    outer loop
      vertex 80.75 100 0.799988
      vertex 80.8427 98.1131 0
      vertex 80.75 100 0
    endloop
  endfacet
  facet normal 0.998795 0.0490675 0
    outer loop
      vertex 80.75 100 0.799988
      vertex 80.8427 98.1131 0.799988
      vertex 80.8427 98.1131 0
    endloop
  endfacet
  facet normal 0.989175 0.14674 0
    outer loop
      vertex 80.8427 98.1131 0.799988
      vertex 81.1199 96.2445 0
      vertex 80.8427 98.1131 0
    endloop
  endfacet
  facet normal 0.989175 0.14674 0
    outer loop
      vertex 80.8427 98.1131 0.799988
      vertex 81.1199 96.2445 0.799988
      vertex 81.1199 96.2445 0
    endloop
  endfacet
  facet normal 0.970033 0.242971 0
    outer loop
      vertex 81.1199 96.2445 0.799988
      vertex 81.5789 94.412 0
      vertex 81.1199 96.2445 0
    endloop
  endfacet
  facet normal 0.970033 0.242971 0
    outer loop
      vertex 81.1199 96.2445 0.799988
      vertex 81.5789 94.412 0.799988
      vertex 81.5789 94.412 0
    endloop
  endfacet
  facet normal 0.941548 0.336879 0
    outer loop
      vertex 81.5789 94.412 0.799988
      vertex 82.2153 92.6333 0
      vertex 81.5789 94.412 0
    endloop
  endfacet
  facet normal 0.941548 0.336879 0
    outer loop
      vertex 81.5789 94.412 0.799988
      vertex 82.2153 92.6333 0.799988
      vertex 82.2153 92.6333 0
    endloop
  endfacet
  facet normal 0.903987 0.42756 0
    outer loop
      vertex 82.2153 92.6333 0.799988
      vertex 83.023 90.9256 0
      vertex 82.2153 92.6333 0
    endloop
  endfacet
  facet normal 0.903987 0.42756 0
    outer loop
      vertex 82.2153 92.6333 0.799988
      vertex 83.023 90.9256 0.799988
      vertex 83.023 90.9256 0
    endloop
  endfacet
  facet normal 0.857734 0.514093 0
    outer loop
      vertex 83.023 90.9256 0.799988
      vertex 83.9942 89.3052 0
      vertex 83.023 90.9256 0
    endloop
  endfacet
  facet normal 0.857734 0.514093 0
    outer loop
      vertex 83.023 90.9256 0.799988
      vertex 83.9942 89.3052 0.799988
      vertex 83.9942 89.3052 0
    endloop
  endfacet
  facet normal 0.803185 0.59573 0
    outer loop
      vertex 83.9942 89.3052 0.799988
      vertex 85.1196 87.7879 0
      vertex 83.9942 89.3052 0
    endloop
  endfacet
  facet normal 0.803185 0.59573 0
    outer loop
      vertex 83.9942 89.3052 0.799988
      vertex 85.1196 87.7879 0.799988
      vertex 85.1196 87.7879 0
    endloop
  endfacet
  facet normal 0.740955 0.671555 0
    outer loop
      vertex 85.1196 87.7879 0.799988
      vertex 86.3882 86.3882 0
      vertex 85.1196 87.7879 0
    endloop
  endfacet
  facet normal 0.740955 0.671555 0
    outer loop
      vertex 85.1196 87.7879 0.799988
      vertex 86.3882 86.3882 0.799988
      vertex 86.3882 86.3882 0
    endloop
  endfacet
  facet normal 0.671585 0.740928 0
    outer loop
      vertex 86.3882 86.3882 0.799988
      vertex 87.7879 85.1195 0
      vertex 86.3882 86.3882 0
    endloop
  endfacet
  facet normal 0.671585 0.740928 0
    outer loop
      vertex 86.3882 86.3882 0.799988
      vertex 87.7879 85.1195 0.799988
      vertex 87.7879 85.1195 0
    endloop
  endfacet
  facet normal 0.595671 0.803228 0
    outer loop
      vertex 87.7879 85.1195 0.799988
      vertex 89.3053 83.9942 0
      vertex 87.7879 85.1195 0
    endloop
  endfacet
  facet normal 0.595671 0.803228 0
    outer loop
      vertex 87.7879 85.1195 0.799988
      vertex 89.3053 83.9942 0.799988
      vertex 89.3053 83.9942 0
    endloop
  endfacet
  facet normal 0.514114 0.857722 0
    outer loop
      vertex 89.3053 83.9942 0.799988
      vertex 90.9256 83.023 0
      vertex 89.3053 83.9942 0
    endloop
  endfacet
  facet normal 0.514114 0.857722 0
    outer loop
      vertex 89.3053 83.9942 0.799988
      vertex 90.9256 83.023 0.799988
      vertex 90.9256 83.023 0
    endloop
  endfacet
  facet normal 0.427542 0.903995 0
    outer loop
      vertex 90.9256 83.023 0.799988
      vertex 92.6334 82.2153 0
      vertex 90.9256 83.023 0
    endloop
  endfacet
  facet normal 0.427542 0.903995 0
    outer loop
      vertex 90.9256 83.023 0.799988
      vertex 92.6334 82.2153 0.799988
      vertex 92.6334 82.2153 0
    endloop
  endfacet
  facet normal 0.336894 0.941543 0
    outer loop
      vertex 92.6334 82.2153 0.799988
      vertex 94.412 81.5789 0
      vertex 92.6334 82.2153 0
    endloop
  endfacet
  facet normal 0.336894 0.941543 0
    outer loop
      vertex 92.6334 82.2153 0.799988
      vertex 94.412 81.5789 0.799988
      vertex 94.412 81.5789 0
    endloop
  endfacet
  facet normal 0.24302 0.970021 0
    outer loop
      vertex 94.412 81.5789 0.799988
      vertex 96.2445 81.1198 0
      vertex 94.412 81.5789 0
    endloop
  endfacet
  facet normal 0.24302 0.970021 0
    outer loop
      vertex 94.412 81.5789 0.799988
      vertex 96.2445 81.1198 0.799988
      vertex 96.2445 81.1198 0
    endloop
  endfacet
  facet normal 0.146681 0.989184 0
    outer loop
      vertex 96.2445 81.1198 0.799988
      vertex 98.1132 80.8427 0
      vertex 96.2445 81.1198 0
    endloop
  endfacet
  facet normal 0.146681 0.989184 0
    outer loop
      vertex 96.2445 81.1198 0.799988
      vertex 98.1132 80.8427 0.799988
      vertex 98.1132 80.8427 0
    endloop
  endfacet
  facet normal 0.0490721 0.998795 0
    outer loop
      vertex 98.1132 80.8427 0.799988
      vertex 100 80.75 0
      vertex 98.1132 80.8427 0
    endloop
  endfacet
  facet normal 0.0490721 0.998795 0
    outer loop
      vertex 98.1132 80.8427 0.799988
      vertex 100 80.75 0.799988
      vertex 100 80.75 0
    endloop
  endfacet
  facet normal -0.0490723 0.998795 0
    outer loop
      vertex 100 80.75 0.799988
      vertex 101.887 80.8427 0
      vertex 100 80.75 0
    endloop
  endfacet
  facet normal -0.0490723 0.998795 0
    outer loop
      vertex 100 80.75 0.799988
      vertex 101.887 80.8427 0.799988
      vertex 101.887 80.8427 0
    endloop
  endfacet
  facet normal -0.14668 0.989184 0
    outer loop
      vertex 101.887 80.8427 0.799988
      vertex 103.756 81.1198 0
      vertex 101.887 80.8427 0
    endloop
  endfacet
  facet normal -0.14668 0.989184 0
    outer loop
      vertex 101.887 80.8427 0.799988
      vertex 103.756 81.1198 0.799988
      vertex 103.756 81.1198 0
    endloop
  endfacet
  facet normal -0.243021 0.970021 0
    outer loop
      vertex 103.756 81.1198 0.799988
      vertex 105.588 81.5789 0
      vertex 103.756 81.1198 0
    endloop
  endfacet
  facet normal -0.243021 0.970021 0
    outer loop
      vertex 103.756 81.1198 0.799988
      vertex 105.588 81.5789 0.799988
      vertex 105.588 81.5789 0
    endloop
  endfacet
  facet normal -0.336876 0.941549 0
    outer loop
      vertex 105.588 81.5789 0.799988
      vertex 107.367 82.2153 0
      vertex 105.588 81.5789 0
    endloop
  endfacet
  facet normal -0.336876 0.941549 0
    outer loop
      vertex 105.588 81.5789 0.799988
      vertex 107.367 82.2153 0.799988
      vertex 107.367 82.2153 0
    endloop
  endfacet
  facet normal -0.427562 0.903986 0
    outer loop
      vertex 107.367 82.2153 0.799988
      vertex 109.074 83.023 0
      vertex 107.367 82.2153 0
    endloop
  endfacet
  facet normal -0.427562 0.903986 0
    outer loop
      vertex 107.367 82.2153 0.799988
      vertex 109.074 83.023 0.799988
      vertex 109.074 83.023 0
    endloop
  endfacet
  facet normal -0.514116 0.857721 0
    outer loop
      vertex 109.074 83.023 0.799988
      vertex 110.695 83.9942 0
      vertex 109.074 83.023 0
    endloop
  endfacet
  facet normal -0.514116 0.857721 0
    outer loop
      vertex 109.074 83.023 0.799988
      vertex 110.695 83.9942 0.799988
      vertex 110.695 83.9942 0
    endloop
  endfacet
  facet normal -0.595671 0.803228 0
    outer loop
      vertex 110.695 83.9942 0.799988
      vertex 112.212 85.1195 0
      vertex 110.695 83.9942 0
    endloop
  endfacet
  facet normal -0.595671 0.803228 0
    outer loop
      vertex 110.695 83.9942 0.799988
      vertex 112.212 85.1195 0.799988
      vertex 112.212 85.1195 0
    endloop
  endfacet
  facet normal -0.671583 0.74093 0
    outer loop
      vertex 112.212 85.1195 0.799988
      vertex 113.612 86.3882 0
      vertex 112.212 85.1195 0
    endloop
  endfacet
  facet normal -0.671583 0.74093 0
    outer loop
      vertex 112.212 85.1195 0.799988
      vertex 113.612 86.3882 0.799988
      vertex 113.612 86.3882 0
    endloop
  endfacet
  facet normal -0.740929 0.671584 0
    outer loop
      vertex 113.612 86.3882 0.799988
      vertex 114.881 87.7879 0
      vertex 113.612 86.3882 0
    endloop
  endfacet
  facet normal -0.740929 0.671584 0
    outer loop
      vertex 113.612 86.3882 0.799988
      vertex 114.881 87.7879 0.799988
      vertex 114.881 87.7879 0
    endloop
  endfacet
  facet normal -0.80321 0.595696 0
    outer loop
      vertex 114.881 87.7879 0.799988
      vertex 116.006 89.3052 0
      vertex 114.881 87.7879 0
    endloop
  endfacet
  facet normal -0.80321 0.595696 0
    outer loop
      vertex 114.881 87.7879 0.799988
      vertex 116.006 89.3052 0.799988
      vertex 116.006 89.3052 0
    endloop
  endfacet
  facet normal -0.857736 0.51409 0
    outer loop
      vertex 116.006 89.3052 0.799988
      vertex 116.977 90.9256 0
      vertex 116.006 89.3052 0
    endloop
  endfacet
  facet normal -0.857736 0.51409 0
    outer loop
      vertex 116.006 89.3052 0.799988
      vertex 116.977 90.9256 0.799988
      vertex 116.977 90.9256 0
    endloop
  endfacet
  facet normal -0.903985 0.427563 0
    outer loop
      vertex 116.977 90.9256 0.799988
      vertex 117.785 92.6333 0
      vertex 116.977 90.9256 0
    endloop
  endfacet
  facet normal -0.903985 0.427563 0
    outer loop
      vertex 116.977 90.9256 0.799988
      vertex 117.785 92.6333 0.799988
      vertex 117.785 92.6333 0
    endloop
  endfacet
  facet normal -0.941549 0.336875 0
    outer loop
      vertex 117.785 92.6333 0.799988
      vertex 118.421 94.412 0
      vertex 117.785 92.6333 0
    endloop
  endfacet
  facet normal -0.941549 0.336875 0
    outer loop
      vertex 117.785 92.6333 0.799988
      vertex 118.421 94.412 0.799988
      vertex 118.421 94.412 0
    endloop
  endfacet
  facet normal -0.970033 0.242971 0
    outer loop
      vertex 118.421 94.412 0.799988
      vertex 118.88 96.2445 0
      vertex 118.421 94.412 0
    endloop
  endfacet
  facet normal -0.970033 0.242971 0
    outer loop
      vertex 118.421 94.412 0.799988
      vertex 118.88 96.2445 0.799988
      vertex 118.88 96.2445 0
    endloop
  endfacet
  facet normal -0.989175 0.14674 0
    outer loop
      vertex 118.88 96.2445 0.799988
      vertex 119.157 98.1131 0
      vertex 118.88 96.2445 0
    endloop
  endfacet
  facet normal -0.989175 0.14674 0
    outer loop
      vertex 118.88 96.2445 0.799988
      vertex 119.157 98.1131 0.799988
      vertex 119.157 98.1131 0
    endloop
  endfacet
  facet normal -0.998795 0.0490715 0
    outer loop
      vertex 119.157 98.1131 0.799988
      vertex 119.25 100 0
      vertex 119.157 98.1131 0
    endloop
  endfacet
  facet normal -0.998795 0.0490715 0
    outer loop
      vertex 119.157 98.1131 0.799988
      vertex 119.25 100 0.799988
      vertex 119.25 100 0
    endloop
  endfacet
  facet normal 0 0 1
    outer loop
      vertex 100 133 0.799988
      vertex 96.7654 132.841 0.799988
      vertex 103.235 132.841 0.799988
    endloop
  endfacet
  facet normal 0 0 1
    outer loop
      vertex 96.7654 132.841 0.799988
      vertex 93.562 132.366 0.799988
      vertex 103.235 132.841 0.799988
    endloop
  endfacet
  facet normal 0 0 1
    outer loop
      vertex 103.235 132.841 0.799988
      vertex 93.562 132.366 0.799988
      vertex 106.438 132.366 0.799988
    endloop
  endfacet
  facet normal 0 0 1
    outer loop
      vertex 93.562 132.366 0.799988
      vertex 90.4206 131.579 0.799988
      vertex 106.438 132.366 0.799988
    endloop
  endfacet
  facet normal 0 0 1
    outer loop
      vertex 106.438 132.366 0.799988
      vertex 90.4206 131.579 0.799988
      vertex 109.579 131.579 0.799988
    endloop
  endfacet
  facet normal 0 0 1
    outer loop
      vertex 90.4206 131.579 0.799988
      vertex 87.3715 130.488 0.799988
      vertex 109.579 131.579 0.799988
    endloop
  endfacet
  facet normal 0 0 1
    outer loop
      vertex 109.579 131.579 0.799988
      vertex 87.3715 130.488 0.799988
      vertex 112.629 130.488 0.799988
    endloop
  endfacet
  facet normal 0 0 1
    outer loop
      vertex 87.3715 130.488 0.799988
      vertex 84.4439 129.103 0.799988
      vertex 112.629 130.488 0.799988
    endloop
  endfacet
  facet normal 0 0 1
    outer loop
      vertex 112.629 130.488 0.799988
      vertex 84.4439 129.103 0.799988
      vertex 115.556 129.103 0.799988
    endloop
  endfacet
  facet normal 0 0 1
    outer loop
      vertex 84.4439 129.103 0.799988
      vertex 81.6662 127.439 0.799988
      vertex 115.556 129.103 0.799988
    endloop
  endfacet
  facet normal 0 0 1
    outer loop
      vertex 115.556 129.103 0.799988
      vertex 81.6662 127.439 0.799988
      vertex 118.334 127.439 0.799988
    endloop
  endfacet
  facet normal 0 0 1
    outer loop
      vertex 81.6662 127.439 0.799988
      vertex 79.065 125.509 0.799988
      vertex 118.334 127.439 0.799988
    endloop
  endfacet
  facet normal 0 0 1
    outer loop
      vertex 118.334 127.439 0.799988
      vertex 79.065 125.509 0.799988
      vertex 120.935 125.509 0.799988
    endloop
  endfacet
  facet normal 0 0 1
    outer loop
      vertex 79.065 125.509 0.799988
      vertex 76.6655 123.335 0.799988
      vertex 120.935 125.509 0.799988
    endloop
  endfacet
  facet normal 0 0 1
    outer loop
      vertex 120.935 125.509 0.799988
      vertex 76.6655 123.335 0.799988
      vertex 123.334 123.335 0.799988
    endloop
  endfacet
  facet normal 0 0 1
    outer loop
      vertex 76.6655 123.335 0.799988
      vertex 74.4907 120.935 0.799988
      vertex 123.334 123.335 0.799988
    endloop
  endfacet
  facet normal 0 0 1
    outer loop
      vertex 123.334 123.335 0.799988
      vertex 74.4907 120.935 0.799988
      vertex 125.509 120.935 0.799988
    endloop
  endfacet
  facet normal 0 0 1
    outer loop
      vertex 74.4907 120.935 0.799988
      vertex 100 119.25 0.799988
      vertex 125.509 120.935 0.799988
    endloop
  endfacet
  facet normal 0 0 1
    outer loop
      vertex 125.509 120.935 0.799988
      vertex 100 119.25 0.799988
      vertex 101.887 119.157 0.799988
    endloop
  endfacet
  facet normal 0 0 1
    outer loop
      vertex 74.4907 120.935 0.799988
      vertex 72.5615 118.334 0.799988
      vertex 94.412 118.421 0.799988
    endloop
  endfacet
  facet normal 0 0 1
    outer loop
      vertex 74.4907 120.935 0.799988
      vertex 94.412 118.421 0.799988
      vertex 96.2445 118.88 0.799988
    endloop
  endfacet
  facet normal 0 0 1
    outer loop
      vertex 74.4907 120.935 0.799988
      vertex 96.2445 118.88 0.799988
      vertex 98.1132 119.157 0.799988
    endloop
  endfacet
  facet normal 0 0 1
    outer loop
      vertex 74.4907 120.935 0.799988
      vertex 98.1132 119.157 0.799988
      vertex 100 119.25 0.799988
    endloop
  endfacet
  facet normal 0 0 1
    outer loop
      vertex 72.5615 118.334 0.799988
      vertex 70.8966 115.556 0.799988
      vertex 89.3053 116.006 0.799988
    endloop
  endfacet
  facet normal 0 0 1
    outer loop
      vertex 72.5615 118.334 0.799988
      vertex 89.3053 116.006 0.799988
      vertex 90.9256 116.977 0.799988
    endloop
  endfacet
  facet normal 0 0 1
    outer loop
      vertex 72.5615 118.334 0.799988
      vertex 90.9256 116.977 0.799988
      vertex 92.6334 117.785 0.799988
    endloop
  endfacet
  facet normal 0 0 1
    outer loop
      vertex 72.5615 118.334 0.799988
      vertex 92.6334 117.785 0.799988
      vertex 94.412 118.421 0.799988
    endloop
  endfacet
  facet normal 0 0 1
    outer loop
      vertex 83.9942 110.695 0.799988
      vertex 85.1196 112.212 0.799988
      vertex 69.512 112.629 0.799988
    endloop
  endfacet
  facet normal 0 0 1
    outer loop
      vertex 85.1196 112.212 0.799988
      vertex 86.3882 113.612 0.799988
      vertex 69.512 112.629 0.799988
    endloop
  endfacet
  facet normal 0 0 1
    outer loop
      vertex 69.512 112.629 0.799988
      vertex 86.3882 113.612 0.799988
      vertex 70.8966 115.556 0.799988
    endloop
  endfacet
  facet normal 0 0 1
    outer loop
      vertex 86.3882 113.612 0.799988
      vertex 87.7879 114.88 0.799988
      vertex 70.8966 115.556 0.799988
    endloop
  endfacet
  facet normal 0 0 1
    outer loop
      vertex 70.8966 115.556 0.799988
      vertex 87.7879 114.88 0.799988
      vertex 89.3053 116.006 0.799988
    endloop
  endfacet
  facet normal 0 0 1
    outer loop
      vertex 68.421 109.579 0.799988
      vertex 67.6341 106.438 0.799988
      vertex 82.2153 107.367 0.799988
    endloop
  endfacet
  facet normal 0 0 1
    outer loop
      vertex 68.421 109.579 0.799988
      vertex 82.2153 107.367 0.799988
      vertex 83.023 109.074 0.799988
    endloop
  endfacet
  facet normal 0 0 1
    outer loop
      vertex 68.421 109.579 0.799988
      vertex 83.023 109.074 0.799988
      vertex 83.9942 110.695 0.799988
    endloop
  endfacet
  facet normal 0 0 1
    outer loop
      vertex 68.421 109.579 0.799988
      vertex 83.9942 110.695 0.799988
      vertex 69.512 112.629 0.799988
    endloop
  endfacet
  facet normal 0 0 1
    outer loop
      vertex 80.8427 98.1131 0.799988
      vertex 80.75 100 0.799988
      vertex 67 100 0.799988
    endloop
  endfacet
  facet normal 0 0 1
    outer loop
      vertex 80.75 100 0.799988
      vertex 80.8427 101.887 0.799988
      vertex 67 100 0.799988
    endloop
  endfacet
  facet normal 0 0 1
    outer loop
      vertex 67 100 0.799988
      vertex 80.8427 101.887 0.799988
      vertex 67.1589 103.234 0.799988
    endloop
  endfacet
  facet normal 0 0 1
    outer loop
      vertex 80.8427 101.887 0.799988
      vertex 81.1199 103.755 0.799988
      vertex 67.1589 103.234 0.799988
    endloop
  endfacet
  facet normal 0 0 1
    outer loop
      vertex 67.1589 103.234 0.799988
      vertex 81.1199 103.755 0.799988
      vertex 67.6341 106.438 0.799988
    endloop
  endfacet
  facet normal 0 0 1
    outer loop
      vertex 81.1199 103.755 0.799988
      vertex 81.5789 105.588 0.799988
      vertex 67.6341 106.438 0.799988
    endloop
  endfacet
  facet normal 0 0 1
    outer loop
      vertex 67.6341 106.438 0.799988
      vertex 81.5789 105.588 0.799988
      vertex 82.2153 107.367 0.799988
    endloop
  endfacet
  facet normal 0 0 1
    outer loop
      vertex 67.1589 96.7654 0.799988
      vertex 67.6341 93.562 0.799988
      vertex 81.5789 94.412 0.799988
    endloop
  endfacet
  facet normal 0 0 1
    outer loop
      vertex 67.1589 96.7654 0.799988
      vertex 81.5789 94.412 0.799988
      vertex 81.1199 96.2445 0.799988
    endloop
  endfacet
  facet normal 0 0 1
    outer loop
      vertex 67.1589 96.7654 0.799988
      vertex 81.1199 96.2445 0.799988
      vertex 80.8427 98.1131 0.799988
    endloop
  endfacet
  facet normal 0 0 1
    outer loop
      vertex 67.1589 96.7654 0.799988
      vertex 80.8427 98.1131 0.799988
      vertex 67 100 0.799988
    endloop
  endfacet
  facet normal 0 0 1
    outer loop
      vertex 85.1196 87.7879 0.799988
      vertex 83.9942 89.3052 0.799988
      vertex 68.421 90.4206 0.799988
    endloop
  endfacet
  facet normal 0 0 1
    outer loop
      vertex 83.9942 89.3052 0.799988
      vertex 83.023 90.9256 0.799988
      vertex 68.421 90.4206 0.799988
    endloop
  endfacet
  facet normal 0 0 1
    outer loop
      vertex 68.421 90.4206 0.799988
      vertex 83.023 90.9256 0.799988
      vertex 67.6341 93.562 0.799988
    endloop
  endfacet
  facet normal 0 0 1
    outer loop
      vertex 83.023 90.9256 0.799988
      vertex 82.2153 92.6333 0.799988
      vertex 67.6341 93.562 0.799988
    endloop
  endfacet
  facet normal 0 0 1
    outer loop
      vertex 67.6341 93.562 0.799988
      vertex 82.2153 92.6333 0.799988
      vertex 81.5789 94.412 0.799988
    endloop
  endfacet
  facet normal 0 0 1
    outer loop
      vertex 69.512 87.3714 0.799988
      vertex 70.8966 84.4439 0.799988
      vertex 87.7879 85.1195 0.799988
    endloop
  endfacet
  facet normal 0 0 1
    outer loop
      vertex 69.512 87.3714 0.799988
      vertex 87.7879 85.1195 0.799988
      vertex 86.3882 86.3882 0.799988
    endloop
  endfacet
  facet normal 0 0 1
    outer loop
      vertex 69.512 87.3714 0.799988
      vertex 86.3882 86.3882 0.799988
      vertex 85.1196 87.7879 0.799988
    endloop
  endfacet
  facet normal 0 0 1
    outer loop
      vertex 69.512 87.3714 0.799988
      vertex 85.1196 87.7879 0.799988
      vertex 68.421 90.4206 0.799988
    endloop
  endfacet
  facet normal 0 0 1
    outer loop
      vertex 70.8966 84.4439 0.799988
      vertex 72.5615 81.6661 0.799988
      vertex 92.6334 82.2153 0.799988
    endloop
  endfacet
  facet normal 0 0 1
    outer loop
      vertex 70.8966 84.4439 0.799988
      vertex 92.6334 82.2153 0.799988
      vertex 90.9256 83.023 0.799988
    endloop
  endfacet
  facet normal 0 0 1
    outer loop
      vertex 70.8966 84.4439 0.799988
      vertex 90.9256 83.023 0.799988
      vertex 89.3053 83.9942 0.799988
    endloop
  endfacet
  facet normal 0 0 1
    outer loop
      vertex 70.8966 84.4439 0.799988
      vertex 89.3053 83.9942 0.799988
      vertex 87.7879 85.1195 0.799988
    endloop
  endfacet
  facet normal 0 0 1
    outer loop
      vertex 72.5615 81.6661 0.799988
      vertex 74.4907 79.065 0.799988
      vertex 100 80.75 0.799988
    endloop
  endfacet
  facet normal 0 0 1
    outer loop
      vertex 72.5615 81.6661 0.799988
      vertex 100 80.75 0.799988
      vertex 98.1132 80.8427 0.799988
    endloop
  endfacet
  facet normal 0 0 1
    outer loop
      vertex 72.5615 81.6661 0.799988
      vertex 98.1132 80.8427 0.799988
      vertex 96.2445 81.1198 0.799988
    endloop
  endfacet
  facet normal 0 0 1
    outer loop
      vertex 72.5615 81.6661 0.799988
      vertex 96.2445 81.1198 0.799988
      vertex 94.412 81.5789 0.799988
    endloop
  endfacet
  facet normal 0 0 1
    outer loop
      vertex 72.5615 81.6661 0.799988
      vertex 94.412 81.5789 0.799988
      vertex 92.6334 82.2153 0.799988
    endloop
  endfacet
  facet normal 0 0 1
    outer loop
      vertex 101.887 119.157 0.799988
      vertex 103.756 118.88 0.799988
      vertex 125.509 120.935 0.799988
    endloop
  endfacet
  facet normal 0 0 1
    outer loop
      vertex 103.756 118.88 0.799988
      vertex 105.588 118.421 0.799988
      vertex 125.509 120.935 0.799988
    endloop
  endfacet
  facet normal 0 0 1
    outer loop
      vertex 125.509 120.935 0.799988
      vertex 105.588 118.421 0.799988
      vertex 127.438 118.334 0.799988
    endloop
  endfacet
  facet normal 0 0 1
    outer loop
      vertex 105.588 118.421 0.799988
      vertex 107.367 117.785 0.799988
      vertex 127.438 118.334 0.799988
    endloop
  endfacet
  facet normal 0 0 1
    outer loop
      vertex 127.438 118.334 0.799988
      vertex 107.367 117.785 0.799988
      vertex 109.074 116.977 0.799988
    endloop
  endfacet
  facet normal 0 0 1
    outer loop
      vertex 110.695 116.006 0.799988
      vertex 112.212 114.88 0.799988
      vertex 129.103 115.556 0.799988
    endloop
  endfacet
  facet normal 0 0 1
    outer loop
      vertex 110.695 116.006 0.799988
      vertex 129.103 115.556 0.799988
      vertex 127.438 118.334 0.799988
    endloop
  endfacet
  facet normal 0 0 1
    outer loop
      vertex 110.695 116.006 0.799988
      vertex 127.438 118.334 0.799988
      vertex 109.074 116.977 0.799988
    endloop
  endfacet
  facet normal 0 0 1
    outer loop
      vertex 113.612 113.612 0.799988
      vertex 114.881 112.212 0.799988
      vertex 130.488 112.629 0.799988
    endloop
  endfacet
  facet normal 0 0 1
    outer loop
      vertex 113.612 113.612 0.799988
      vertex 130.488 112.629 0.799988
      vertex 129.103 115.556 0.799988
    endloop
  endfacet
  facet normal 0 0 1
    outer loop
      vertex 113.612 113.612 0.799988
      vertex 129.103 115.556 0.799988
      vertex 112.212 114.88 0.799988
    endloop
  endfacet
  facet normal 0 0 1
    outer loop
      vertex 116.006 110.695 0.799988
      vertex 116.977 109.074 0.799988
      vertex 131.579 109.579 0.799988
    endloop
  endfacet
  facet normal 0 0 1
    outer loop
      vertex 116.006 110.695 0.799988
      vertex 131.579 109.579 0.799988
      vertex 130.488 112.629 0.799988
    endloop
  endfacet
  facet normal 0 0 1
    outer loop
      vertex 116.006 110.695 0.799988
      vertex 130.488 112.629 0.799988
      vertex 114.881 112.212 0.799988
    endloop
  endfacet
  facet normal 0 0 1
    outer loop
      vertex 117.785 107.367 0.799988
      vertex 118.421 105.588 0.799988
      vertex 132.366 106.438 0.799988
    endloop
  endfacet
  facet normal 0 0 1
    outer loop
      vertex 117.785 107.367 0.799988
      vertex 132.366 106.438 0.799988
      vertex 131.579 109.579 0.799988
    endloop
  endfacet
  facet normal 0 0 1
    outer loop
      vertex 117.785 107.367 0.799988
      vertex 131.579 109.579 0.799988
      vertex 116.977 109.074 0.799988
    endloop
  endfacet
  facet normal 0 0 1
    outer loop
      vertex 118.88 103.755 0.799988
      vertex 119.157 101.887 0.799988
      vertex 132.841 103.234 0.799988
    endloop
  endfacet
  facet normal 0 0 1
    outer loop
      vertex 118.88 103.755 0.799988
      vertex 132.841 103.234 0.799988
      vertex 132.366 106.438 0.799988
    endloop
  endfacet
  facet normal 0 0 1
    outer loop
      vertex 118.88 103.755 0.799988
      vertex 132.366 106.438 0.799988
      vertex 118.421 105.588 0.799988
    endloop
  endfacet
  facet normal 0 0 1
    outer loop
      vertex 118.88 96.2445 0.799988
      vertex 132.841 96.7654 0.799988
      vertex 119.157 98.1131 0.799988
    endloop
  endfacet
  facet normal 0 0 1
    outer loop
      vertex 132.841 96.7654 0.799988
      vertex 133 100 0.799988
      vertex 119.157 98.1131 0.799988
    endloop
  endfacet
  facet normal 0 0 1
    outer loop
      vertex 119.157 98.1131 0.799988
      vertex 133 100 0.799988
      vertex 119.25 100 0.799988
    endloop
  endfacet
  facet normal 0 0 1
    outer loop
      vertex 133 100 0.799988
      vertex 132.841 103.234 0.799988
      vertex 119.25 100 0.799988
    endloop
  endfacet
  facet normal 0 0 1
    outer loop
      vertex 119.25 100 0.799988
      vertex 132.841 103.234 0.799988
      vertex 119.157 101.887 0.799988
    endloop
  endfacet
  facet normal 0 0 1
    outer loop
      vertex 118.421 94.412 0.799988
      vertex 117.785 92.6333 0.799988
      vertex 132.366 93.562 0.799988
    endloop
  endfacet
  facet normal 0 0 1
    outer loop
      vertex 118.421 94.412 0.799988
      vertex 132.366 93.562 0.799988
      vertex 132.841 96.7654 0.799988
    endloop
  endfacet
  facet normal 0 0 1
    outer loop
      vertex 118.421 94.412 0.799988
      vertex 132.841 96.7654 0.799988
      vertex 118.88 96.2445 0.799988
    endloop
  endfacet
  facet normal 0 0 1
    outer loop
      vertex 116.977 90.9256 0.799988
      vertex 116.006 89.3052 0.799988
      vertex 131.579 90.4206 0.799988
    endloop
  endfacet
  facet normal 0 0 1
    outer loop
      vertex 116.977 90.9256 0.799988
      vertex 131.579 90.4206 0.799988
      vertex 132.366 93.562 0.799988
    endloop
  endfacet
  facet normal 0 0 1
    outer loop
      vertex 116.977 90.9256 0.799988
      vertex 132.366 93.562 0.799988
      vertex 117.785 92.6333 0.799988
    endloop
  endfacet
  facet normal 0 0 1
    outer loop
      vertex 114.881 87.7879 0.799988
      vertex 113.612 86.3882 0.799988
      vertex 130.488 87.3714 0.799988
    endloop
  endfacet
  facet normal 0 0 1
    outer loop
      vertex 114.881 87.7879 0.799988
      vertex 130.488 87.3714 0.799988
      vertex 131.579 90.4206 0.799988
    endloop
  endfacet
  facet normal 0 0 1
    outer loop
      vertex 114.881 87.7879 0.799988
      vertex 131.579 90.4206 0.799988
      vertex 116.006 89.3052 0.799988
    endloop
  endfacet
  facet normal 0 0 1
    outer loop
      vertex 112.212 85.1195 0.799988
      vertex 110.695 83.9942 0.799988
      vertex 129.103 84.4439 0.799988
    endloop
  endfacet
  facet normal 0 0 1
    outer loop
      vertex 112.212 85.1195 0.799988
      vertex 129.103 84.4439 0.799988
      vertex 130.488 87.3714 0.799988
    endloop
  endfacet
  facet normal 0 0 1
    outer loop
      vertex 112.212 85.1195 0.799988
      vertex 130.488 87.3714 0.799988
      vertex 113.612 86.3882 0.799988
    endloop
  endfacet
  facet normal 0 0 1
    outer loop
      vertex 110.695 83.9942 0.799988
      vertex 109.074 83.023 0.799988
      vertex 129.103 84.4439 0.799988
    endloop
  endfacet
  facet normal 0 0 1
    outer loop
      vertex 109.074 83.023 0.799988
      vertex 107.367 82.2153 0.799988
      vertex 129.103 84.4439 0.799988
    endloop
  endfacet
  facet normal 0 0 1
    outer loop
      vertex 129.103 84.4439 0.799988
      vertex 107.367 82.2153 0.799988
      vertex 127.438 81.6661 0.799988
    endloop
  endfacet
  facet normal 0 0 1
    outer loop
      vertex 107.367 82.2153 0.799988
      vertex 105.588 81.5789 0.799988
      vertex 127.438 81.6661 0.799988
    endloop
  endfacet
  facet normal 0 0 1
    outer loop
      vertex 127.438 81.6661 0.799988
      vertex 105.588 81.5789 0.799988
      vertex 103.756 81.1198 0.799988
    endloop
  endfacet
  facet normal 0 0 1
    outer loop
      vertex 127.438 81.6661 0.799988
      vertex 103.756 81.1198 0.799988
      vertex 101.887 80.8427 0.799988
    endloop
  endfacet
  facet normal 0 0 1
    outer loop
      vertex 127.438 81.6661 0.799988
      vertex 101.887 80.8427 0.799988
      vertex 100 80.75 0.799988
    endloop
  endfacet
  facet normal 0 0 1
    outer loop
      vertex 127.438 81.6661 0.799988
      vertex 100 80.75 0.799988
      vertex 74.4907 79.065 0.799988
    endloop
  endfacet
  facet normal 0 0 1
    outer loop
      vertex 127.438 81.6661 0.799988
      vertex 74.4907 79.065 0.799988
      vertex 125.509 79.065 0.799988
    endloop
  endfacet
  facet normal 0 0 1
    outer loop
      vertex 100 67 0.799988
      vertex 103.235 67.1589 0.799988
      vertex 96.7654 67.1589 0.799988
    endloop
  endfacet
  facet normal 0 0 1
    outer loop
      vertex 103.235 67.1589 0.799988
      vertex 106.438 67.634 0.799988
      vertex 96.7654 67.1589 0.799988
    endloop
  endfacet
  facet normal 0 0 1
    outer loop
      vertex 96.7654 67.1589 0.799988
      vertex 106.438 67.634 0.799988
      vertex 93.562 67.634 0.799988
    endloop
  endfacet
  facet normal 0 0 1
    outer loop
      vertex 106.438 67.634 0.799988
      vertex 109.579 68.4209 0.799988
      vertex 93.562 67.634 0.799988
    endloop
  endfacet
  facet normal 0 0 1
    outer loop
      vertex 93.562 67.634 0.799988
      vertex 109.579 68.4209 0.799988
      vertex 90.4206 68.4209 0.799988
    endloop
  endfacet
  facet normal 0 0 1
    outer loop
      vertex 109.579 68.4209 0.799988
      vertex 112.629 69.5119 0.799988
      vertex 90.4206 68.4209 0.799988
    endloop
  endfacet
  facet normal 0 0 1
    outer loop
      vertex 90.4206 68.4209 0.799988
      vertex 112.629 69.5119 0.799988
      vertex 87.3715 69.5119 0.799988
    endloop
  endfacet
  facet normal 0 0 1
    outer loop
      vertex 112.629 69.5119 0.799988
      vertex 115.556 70.8966 0.799988
      vertex 87.3715 69.5119 0.799988
    endloop
  endfacet
  facet normal 0 0 1
    outer loop
      vertex 87.3715 69.5119 0.799988
      vertex 115.556 70.8966 0.799988
      vertex 84.4439 70.8966 0.799988
    endloop
  endfacet
  facet normal 0 0 1
    outer loop
      vertex 115.556 70.8966 0.799988
      vertex 118.334 72.5615 0.799988
      vertex 84.4439 70.8966 0.799988
    endloop
  endfacet
  facet normal 0 0 1
    outer loop
      vertex 84.4439 70.8966 0.799988
      vertex 118.334 72.5615 0.799988
      vertex 81.6662 72.5615 0.799988
    endloop
  endfacet
  facet normal 0 0 1
    outer loop
      vertex 118.334 72.5615 0.799988
      vertex 120.935 74.4906 0.799988
      vertex 81.6662 72.5615 0.799988
    endloop
  endfacet
  facet normal 0 0 1
    outer loop
      vertex 81.6662 72.5615 0.799988
      vertex 120.935 74.4906 0.799988
      vertex 79.065 74.4906 0.799988
    endloop
  endfacet
  facet normal 0 0 1
    outer loop
      vertex 120.935 74.4906 0.799988
      vertex 123.334 76.6654 0.799988
      vertex 79.065 74.4906 0.799988
    endloop
  endfacet
  facet normal 0 0 1
    outer loop
      vertex 79.065 74.4906 0.799988
      vertex 123.334 76.6654 0.799988
      vertex 76.6655 76.6654 0.799988
    endloop
  endfacet
  facet normal 0 0 1
    outer loop
      vertex 123.334 76.6654 0.799988
      vertex 125.509 79.065 0.799988
      vertex 76.6655 76.6654 0.799988
    endloop
  endfacet
  facet normal 0 0 1
    outer loop
      vertex 76.6655 76.6654 0.799988
      vertex 125.509 79.065 0.799988
      vertex 74.4907 79.065 0.799988
    endloop
  endfacet
  facet normal -0.998796 -0.0490651 0
    outer loop
      vertex 67 100 0
      vertex 67.1589 96.7654 0.799988
      vertex 67 100 0.799988
    endloop
  endfacet
  facet normal -0.998796 -0.0490651 0
    outer loop
      vertex 67 100 0
      vertex 67.1589 96.7654 0
      vertex 67.1589 96.7654 0.799988
    endloop
  endfacet
  facet normal -0.989175 -0.146738 0
    outer loop
      vertex 67.1589 96.7654 0
      vertex 67.6341 93.562 0.799988
      vertex 67.1589 96.7654 0.799988
    endloop
  endfacet
  facet normal -0.989175 -0.146738 0
    outer loop
      vertex 67.1589 96.7654 0
      vertex 67.6341 93.562 0
      vertex 67.6341 93.562 0.799988
    endloop
  endfacet
  facet normal -0.97003 -0.242985 0
    outer loop
      vertex 67.6341 93.562 0
      vertex 68.421 90.4206 0.799988
      vertex 67.6341 93.562 0.799988
    endloop
  endfacet
  facet normal -0.97003 -0.242985 0
    outer loop
      vertex 67.6341 93.562 0
      vertex 68.421 90.4206 0
      vertex 68.421 90.4206 0.799988
    endloop
  endfacet
  facet normal -0.941546 -0.336885 0
    outer loop
      vertex 68.421 90.4206 0
      vertex 69.512 87.3714 0.799988
      vertex 68.421 90.4206 0.799988
    endloop
  endfacet
  facet normal -0.941546 -0.336885 0
    outer loop
      vertex 68.421 90.4206 0
      vertex 69.512 87.3714 0
      vertex 69.512 87.3714 0.799988
    endloop
  endfacet
  facet normal -0.90399 -0.427553 0
    outer loop
      vertex 69.512 87.3714 0
      vertex 70.8966 84.4439 0.799988
      vertex 69.512 87.3714 0.799988
    endloop
  endfacet
  facet normal -0.90399 -0.427553 0
    outer loop
      vertex 69.512 87.3714 0
      vertex 70.8966 84.4439 0
      vertex 70.8966 84.4439 0.799988
    endloop
  endfacet
  facet normal -0.857735 -0.514092 0
    outer loop
      vertex 70.8966 84.4439 0
      vertex 72.5615 81.6661 0.799988
      vertex 70.8966 84.4439 0.799988
    endloop
  endfacet
  facet normal -0.857735 -0.514092 0
    outer loop
      vertex 70.8966 84.4439 0
      vertex 72.5615 81.6661 0
      vertex 72.5615 81.6661 0.799988
    endloop
  endfacet
  facet normal -0.803194 -0.595718 0
    outer loop
      vertex 72.5615 81.6661 0
      vertex 74.4907 79.065 0.799988
      vertex 72.5615 81.6661 0.799988
    endloop
  endfacet
  facet normal -0.803194 -0.595718 0
    outer loop
      vertex 72.5615 81.6661 0
      vertex 74.4907 79.065 0
      vertex 74.4907 79.065 0.799988
    endloop
  endfacet
  facet normal -0.740963 -0.671546 0
    outer loop
      vertex 74.4907 79.065 0
      vertex 76.6655 76.6654 0.799988
      vertex 74.4907 79.065 0.799988
    endloop
  endfacet
  facet normal -0.740963 -0.671546 0
    outer loop
      vertex 74.4907 79.065 0
      vertex 76.6655 76.6654 0
      vertex 76.6655 76.6654 0.799988
    endloop
  endfacet
  facet normal -0.671562 -0.740948 0
    outer loop
      vertex 76.6655 76.6654 0
      vertex 79.065 74.4906 0.799988
      vertex 76.6655 76.6654 0.799988
    endloop
  endfacet
  facet normal -0.671562 -0.740948 0
    outer loop
      vertex 76.6655 76.6654 0
      vertex 79.065 74.4906 0
      vertex 79.065 74.4906 0.799988
    endloop
  endfacet
  facet normal -0.595683 -0.80322 0
    outer loop
      vertex 79.065 74.4906 0
      vertex 81.6662 72.5615 0.799988
      vertex 79.065 74.4906 0.799988
    endloop
  endfacet
  facet normal -0.595683 -0.80322 0
    outer loop
      vertex 79.065 74.4906 0
      vertex 81.6662 72.5615 0
      vertex 81.6662 72.5615 0.799988
    endloop
  endfacet
  facet normal -0.514105 -0.857727 0
    outer loop
      vertex 81.6662 72.5615 0
      vertex 84.4439 70.8966 0.799988
      vertex 81.6662 72.5615 0.799988
    endloop
  endfacet
  facet normal -0.514105 -0.857727 0
    outer loop
      vertex 81.6662 72.5615 0
      vertex 84.4439 70.8966 0
      vertex 84.4439 70.8966 0.799988
    endloop
  endfacet
  facet normal -0.427568 -0.903983 0
    outer loop
      vertex 84.4439 70.8966 0
      vertex 87.3715 69.5119 0.799988
      vertex 84.4439 70.8966 0.799988
    endloop
  endfacet
  facet normal -0.427568 -0.903983 0
    outer loop
      vertex 84.4439 70.8966 0
      vertex 87.3715 69.5119 0
      vertex 87.3715 69.5119 0.799988
    endloop
  endfacet
  facet normal -0.336893 -0.941543 0
    outer loop
      vertex 87.3715 69.5119 0
      vertex 90.4206 68.4209 0.799988
      vertex 87.3715 69.5119 0.799988
    endloop
  endfacet
  facet normal -0.336893 -0.941543 0
    outer loop
      vertex 87.3715 69.5119 0
      vertex 90.4206 68.4209 0
      vertex 90.4206 68.4209 0.799988
    endloop
  endfacet
  facet normal -0.242986 -0.97003 0
    outer loop
      vertex 90.4206 68.4209 0
      vertex 93.562 67.634 0.799988
      vertex 90.4206 68.4209 0.799988
    endloop
  endfacet
  facet normal -0.242986 -0.97003 0
    outer loop
      vertex 90.4206 68.4209 0
      vertex 93.562 67.634 0
      vertex 93.562 67.634 0.799988
    endloop
  endfacet
  facet normal -0.146707 -0.98918 0
    outer loop
      vertex 93.562 67.634 0
      vertex 96.7654 67.1589 0.799988
      vertex 93.562 67.634 0.799988
    endloop
  endfacet
  facet normal -0.146707 -0.98918 0
    outer loop
      vertex 93.562 67.634 0
      vertex 96.7654 67.1589 0
      vertex 96.7654 67.1589 0.799988
    endloop
  endfacet
  facet normal -0.0490656 -0.998796 0
    outer loop
      vertex 96.7654 67.1589 0
      vertex 100 67 0.799988
      vertex 96.7654 67.1589 0.799988
    endloop
  endfacet
  facet normal -0.0490656 -0.998796 0
    outer loop
      vertex 96.7654 67.1589 0
      vertex 100 67 0
      vertex 100 67 0.799988
    endloop
  endfacet
  facet normal 0.0490658 -0.998796 0
    outer loop
      vertex 100 67 0
      vertex 103.235 67.1589 0.799988
      vertex 100 67 0.799988
    endloop
  endfacet
  facet normal 0.0490658 -0.998796 0
    outer loop
      vertex 100 67 0
      vertex 103.235 67.1589 0
      vertex 103.235 67.1589 0.799988
    endloop
  endfacet
  facet normal 0.146707 -0.98918 0
    outer loop
      vertex 103.235 67.1589 0
      vertex 106.438 67.634 0.799988
      vertex 103.235 67.1589 0.799988
    endloop
  endfacet
  facet normal 0.146707 -0.98918 0
    outer loop
      vertex 103.235 67.1589 0
      vertex 106.438 67.634 0
      vertex 106.438 67.634 0.799988
    endloop
  endfacet
  facet normal 0.242986 -0.97003 0
    outer loop
      vertex 106.438 67.634 0
      vertex 109.579 68.4209 0.799988
      vertex 106.438 67.634 0.799988
    endloop
  endfacet
  facet normal 0.242986 -0.97003 0
    outer loop
      vertex 106.438 67.634 0
      vertex 109.579 68.4209 0
      vertex 109.579 68.4209 0.799988
    endloop
  endfacet
  facet normal 0.336884 -0.941546 0
    outer loop
      vertex 109.579 68.4209 0
      vertex 112.629 69.5119 0.799988
      vertex 109.579 68.4209 0.799988
    endloop
  endfacet
  facet normal 0.336884 -0.941546 0
    outer loop
      vertex 109.579 68.4209 0
      vertex 112.629 69.5119 0
      vertex 112.629 69.5119 0.799988
    endloop
  endfacet
  facet normal 0.42758 -0.903978 0
    outer loop
      vertex 112.629 69.5119 0
      vertex 115.556 70.8966 0.799988
      vertex 112.629 69.5119 0.799988
    endloop
  endfacet
  facet normal 0.42758 -0.903978 0
    outer loop
      vertex 112.629 69.5119 0
      vertex 115.556 70.8966 0
      vertex 115.556 70.8966 0.799988
    endloop
  endfacet
  facet normal 0.514105 -0.857727 0
    outer loop
      vertex 115.556 70.8966 0
      vertex 118.334 72.5615 0.799988
      vertex 115.556 70.8966 0.799988
    endloop
  endfacet
  facet normal 0.514105 -0.857727 0
    outer loop
      vertex 115.556 70.8966 0
      vertex 118.334 72.5615 0
      vertex 118.334 72.5615 0.799988
    endloop
  endfacet
  facet normal 0.595684 -0.803219 0
    outer loop
      vertex 118.334 72.5615 0
      vertex 120.935 74.4906 0.799988
      vertex 118.334 72.5615 0.799988
    endloop
  endfacet
  facet normal 0.595684 -0.803219 0
    outer loop
      vertex 118.334 72.5615 0
      vertex 120.935 74.4906 0
      vertex 120.935 74.4906 0.799988
    endloop
  endfacet
  facet normal 0.671562 -0.740948 0
    outer loop
      vertex 120.935 74.4906 0
      vertex 123.334 76.6654 0.799988
      vertex 120.935 74.4906 0.799988
    endloop
  endfacet
  facet normal 0.671562 -0.740948 0
    outer loop
      vertex 120.935 74.4906 0
      vertex 123.334 76.6654 0
      vertex 123.334 76.6654 0.799988
    endloop
  endfacet
  facet normal 0.740947 -0.671564 0
    outer loop
      vertex 123.334 76.6654 0
      vertex 125.509 79.065 0.799988
      vertex 123.334 76.6654 0.799988
    endloop
  endfacet
  facet normal 0.740947 -0.671564 0
    outer loop
      vertex 123.334 76.6654 0
      vertex 125.509 79.065 0
      vertex 125.509 79.065 0.799988
    endloop
  endfacet
  facet normal 0.803208 -0.595698 0
    outer loop
      vertex 125.509 79.065 0
      vertex 127.438 81.6661 0.799988
      vertex 125.509 79.065 0.799988
    endloop
  endfacet
  facet normal 0.803208 -0.595698 0
    outer loop
      vertex 125.509 79.065 0
      vertex 127.438 81.6661 0
      vertex 127.438 81.6661 0.799988
    endloop
  endfacet
  facet normal 0.857736 -0.514091 0
    outer loop
      vertex 127.438 81.6661 0
      vertex 129.103 84.4439 0.799988
      vertex 127.438 81.6661 0.799988
    endloop
  endfacet
  facet normal 0.857736 -0.514091 0
    outer loop
      vertex 127.438 81.6661 0
      vertex 129.103 84.4439 0
      vertex 129.103 84.4439 0.799988
    endloop
  endfacet
  facet normal 0.90399 -0.427554 0
    outer loop
      vertex 129.103 84.4439 0
      vertex 130.488 87.3714 0.799988
      vertex 129.103 84.4439 0.799988
    endloop
  endfacet
  facet normal 0.90399 -0.427554 0
    outer loop
      vertex 129.103 84.4439 0
      vertex 130.488 87.3714 0
      vertex 130.488 87.3714 0.799988
    endloop
  endfacet
  facet normal 0.941546 -0.336884 0
    outer loop
      vertex 130.488 87.3714 0
      vertex 131.579 90.4206 0.799988
      vertex 130.488 87.3714 0.799988
    endloop
  endfacet
  facet normal 0.941546 -0.336884 0
    outer loop
      vertex 130.488 87.3714 0
      vertex 131.579 90.4206 0
      vertex 131.579 90.4206 0.799988
    endloop
  endfacet
  facet normal 0.97003 -0.242986 0
    outer loop
      vertex 131.579 90.4206 0
      vertex 132.366 93.562 0.799988
      vertex 131.579 90.4206 0.799988
    endloop
  endfacet
  facet normal 0.97003 -0.242986 0
    outer loop
      vertex 131.579 90.4206 0
      vertex 132.366 93.562 0
      vertex 132.366 93.562 0.799988
    endloop
  endfacet
  facet normal 0.989176 -0.146737 0
    outer loop
      vertex 132.366 93.562 0
      vertex 132.841 96.7654 0.799988
      vertex 132.366 93.562 0.799988
    endloop
  endfacet
  facet normal 0.989176 -0.146737 0
    outer loop
      vertex 132.366 93.562 0
      vertex 132.841 96.7654 0
      vertex 132.841 96.7654 0.799988
    endloop
  endfacet
  facet normal 0.998796 -0.0490663 0
    outer loop
      vertex 132.841 96.7654 0
      vertex 133 100 0.799988
      vertex 132.841 96.7654 0.799988
    endloop
  endfacet
  facet normal 0.998796 -0.0490663 0
    outer loop
      vertex 132.841 96.7654 0
      vertex 133 100 0
      vertex 133 100 0.799988
    endloop
  endfacet
endsolid 021.stl
